<svg width="212" height="173" viewBox="0 0 212 173" fill="none" xmlns="http://www.w3.org/2000/svg">
<path d="M164.846 29.0378C170.813 26.9991 177.019 31.4228 177.038 37.7284L177.134 69.8666C177.156 77.3687 168.682 81.7507 162.573 77.396L132.065 55.6481C125.956 51.2933 127.335 41.8534 134.434 39.428L164.846 29.0378Z" fill="#9C64A4" stroke="black" stroke-width="0.221998"/>
<path d="M32.9314 44.0643C32.159 37.7295 37.8358 32.5085 44.084 33.807L75.5499 40.3464C82.9836 41.8913 85.5528 51.1982 79.9645 56.3379L52.3881 81.7006C46.7998 86.8403 37.7398 83.503 36.8209 75.9663L32.9314 44.0643Z" fill="#9C64A4"/>
<path d="M32.9314 44.0643C32.159 37.7295 37.8358 32.5085 44.084 33.807L75.5499 40.3464C82.9836 41.8913 85.5528 51.1982 79.9645 56.3379L52.3881 81.7006C46.7998 86.8403 37.7398 83.503 36.8209 75.9663L32.9314 44.0643Z" stroke="black"/>
<path d="M47.8077 53.1163C47.3426 51.2949 49.0237 49.6531 50.8336 50.1611L61.1994 53.0703C63.0093 53.5783 63.5906 55.855 62.2458 57.1685L54.5434 64.6909C53.1986 66.0044 50.9362 65.3694 50.4711 63.548L47.8077 53.1163Z" fill="#511F52"/>
<path d="M151.042 51.4019C149.526 50.2906 149.781 47.9547 151.502 47.1973L161.356 42.8597C163.076 42.1023 164.971 43.4915 164.767 45.3602L163.597 56.0627C163.392 57.9314 161.242 58.8781 159.725 57.7668L151.042 51.4019Z" fill="#511F52"/>
<path d="M34.6201 107.824L41.7551 79.1865C47.1766 57.4262 66.7204 42.1543 89.1459 42.1543H127.165C149.832 42.1543 169.52 57.7498 174.708 79.8149L181.442 108.453C188.65 139.108 165.39 168.471 133.899 168.471H82.0109C50.2534 168.471 26.9425 138.64 34.6201 107.824Z" fill="#D598DE"/>
<g filter="url(#filter0_i_0_4053)">
<circle cx="140.501" cy="89.6642" r="20.8701" fill="white"/>
</g>
<circle cx="82.5598" cy="89.6642" r="20.8701" fill="white"/>
<path d="M116.736 105.403C123.248 105.393 127.15 112.638 123.558 118.069L119.373 124.398C115.958 129.563 108.262 129.194 105.355 123.728L101.997 117.41C99.1088 111.978 103.04 105.424 109.192 105.415L116.736 105.403Z" fill="#152056"/>
<path d="M91.6194 153.552C85.0511 149.265 87.9457 139.068 95.787 138.871L122.593 138.197C130.029 138.01 133.665 147.191 128.118 152.146L116.366 162.646C113.672 165.053 109.698 165.353 106.673 163.378L91.6194 153.552Z" fill="#302F2F"/>
<path d="M95.55 141.464L122.18 140.89" stroke="white" stroke-width="5.10595" stroke-linecap="round"/>
<path d="M38.35 120.9C37.5061 112.434 42.25 78.0002 40.95 82.2252C39.6499 86.4502 35.425 103.025 35.425 103.025C34.45 106.6 32.5 112.45 33.15 122.525C33.8062 132.697 37.2666 140.183 38.675 142.675C40.5166 146.142 46.54 154.635 55.9 160.875C65.26 167.115 74.1 168.458 77.35 168.35H137.475C131.625 168.35 104 167.7 98.15 167.05C91.0364 166.26 69.875 163.8 59.475 156.975C55.6223 154.447 45.9224 145.914 42.9 138.775C41.9368 136.5 39.1938 129.366 38.35 120.9Z" fill="#B76AC2" stroke="#B76AC2" stroke-width="0.26"/>
<ellipse cx="147.755" cy="83.8747" rx="11.9049" ry="11.7245" fill="black"/>
<ellipse cx="89.9049" cy="83.8747" rx="11.9049" ry="11.7245" fill="black"/>
<path d="M64.35 63.7C68.9667 65.7099 73.45 66.2401 77.35 65C81.7465 63.602 85.3101 60.3596 87.75 56.55" stroke="#0F1C3C" stroke-width="3.25" stroke-linecap="round" stroke-linejoin="round"/>
<path d="M156.191 62.1949C152.75 64.9999 146.382 66.9132 142.35 64.3499C138.84 62.1186 136.047 59.3252 135.2 54.5999" stroke="#0F1C3C" stroke-width="3.25" stroke-linecap="round" stroke-linejoin="round"/>
<path d="M102.706 156.617C103.031 156.942 107.484 161.654 110.506 161.655C114.406 161.655 115.706 159.542 118.306 156.292" stroke="#D069A9" stroke-width="6.5" stroke-linecap="round"/>
<defs>
<filter id="filter0_i_0_4053" x="119.631" y="68.7941" width="41.7401" height="44.3401" filterUnits="userSpaceOnUse" color-interpolation-filters="sRGB">
<feFlood flood-opacity="0" result="BackgroundImageFix"/>
<feBlend mode="normal" in="SourceGraphic" in2="BackgroundImageFix" result="shape"/>
<feColorMatrix in="SourceAlpha" type="matrix" values="0 0 0 0 0 0 0 0 0 0 0 0 0 0 0 0 0 0 127 0" result="hardAlpha"/>
<feOffset dy="2.6"/>
<feGaussianBlur stdDeviation="1.3"/>
<feComposite in2="hardAlpha" operator="arithmetic" k2="-1" k3="1"/>
<feColorMatrix type="matrix" values="0 0 0 0 1 0 0 0 0 1 0 0 0 0 1 0 0 0 1 0"/>
<feBlend mode="normal" in2="shape" result="effect1_innerShadow_0_4053"/>
</filter>
</defs>
</svg>
