<svg width="84" height="81" viewBox="0 0 84 81" fill="none" xmlns="http://www.w3.org/2000/svg">
<path d="M0 58.6149V53.1149C0 40.9646 9.84974 31.1149 22 31.1149H45.8021C62.7583 31.1149 73.3405 49.4883 64.8315 64.1549L61.6406 69.655C57.7046 76.4392 50.4545 80.6149 42.6112 80.6149H22C9.84974 80.6149 0 70.7651 0 58.6149Z" fill="#EBB52F"/>
<path d="M2.70082 9.56338C2.99536 4.28161 7.51586 0.238652 12.7976 0.533194C19.6444 0.915007 24.8853 6.77491 24.5034 13.6217L22.4606 50.2542L0.499956 49.0296L2.70082 9.56338Z" fill="#EBB52F"/>
<path d="M66.5 46.1149C66 48.3649 59 52.7649 35 52.3649" stroke="#C18C08" stroke-width="1.5"/>
<path d="M66.5 59.6149C66 61.8649 59 66.2649 35 65.8649" stroke="#C18C08" stroke-width="1.5"/>
</svg>
