<svg width="163" height="133" viewBox="0 0 163 133" fill="none" xmlns="http://www.w3.org/2000/svg">
<path d="M126.805 22.3368C131.395 20.7686 136.168 24.1714 136.183 29.0219L136.257 53.7436C136.274 59.5144 129.755 62.8852 125.056 59.5354L101.588 42.8062C96.8891 39.4564 97.9498 32.1949 103.411 30.3292L126.805 22.3368Z" fill="#9C64A4" stroke="black" stroke-width="0.170768"/>
<path d="M25.3318 33.8957C24.7377 29.0228 29.1044 25.0066 33.9107 26.0055L58.1153 31.0358C63.8335 32.2242 65.8099 39.3834 61.5112 43.337L40.2985 62.8467C35.9998 66.8003 29.0306 64.2332 28.3238 58.4358L25.3318 33.8957Z" fill="#9C64A4"/>
<path d="M25.3318 33.8957C24.7377 29.0228 29.1044 25.0066 33.9107 26.0055L58.1153 31.0358C63.8335 32.2242 65.8099 39.3834 61.5112 43.337L40.2985 62.8467C35.9998 66.8003 29.0306 64.2332 28.3238 58.4358L25.3318 33.8957Z" stroke="black"/>
<path d="M36.7752 40.8588C36.4174 39.4577 37.7106 38.1948 39.1028 38.5855L47.0765 40.8234C48.4688 41.2141 48.9159 42.9655 47.8814 43.9758L41.9565 49.7623C40.922 50.7726 39.1817 50.2842 38.824 48.8831L36.7752 40.8588Z" fill="#511F52"/>
<path d="M116.186 39.5399C115.02 38.685 115.216 36.8882 116.54 36.3056L124.12 32.969C125.443 32.3864 126.901 33.455 126.744 34.8924L125.844 43.1251C125.686 44.5626 124.032 45.2908 122.866 44.436L116.186 39.5399Z" fill="#511F52"/>
<path d="M26.6308 82.9417L32.1193 60.9127C36.2897 44.174 51.3234 32.4264 68.5738 32.4264H97.8195C115.256 32.4264 130.4 44.423 134.391 61.3961L139.571 83.4251C145.115 107.006 127.223 129.593 102.999 129.593H63.0853C38.6565 129.593 20.725 106.646 26.6308 82.9417Z" fill="#D598DE"/>
<g filter="url(#filter0_i_0_4033)">
<circle cx="108.078" cy="68.9724" r="16.0539" fill="white"/>
</g>
<circle cx="63.5075" cy="68.9724" r="16.0539" fill="white"/>
<path d="M89.7966 81.0795C94.8059 81.0717 97.8073 86.6444 95.0443 90.8228L91.8252 95.691C89.1982 99.6636 83.2781 99.3804 81.0425 95.1751L78.4591 90.3158C76.2375 86.137 79.2615 81.0958 83.9941 81.0885L89.7966 81.0795Z" fill="#152056"/>
<path d="M70.4764 118.117C65.4238 114.819 67.6505 106.975 73.6822 106.824L94.3024 106.305C100.022 106.162 102.819 113.224 98.5526 117.036L89.5122 125.112C87.4399 126.964 84.3832 127.195 82.0561 125.676L70.4764 118.117Z" fill="#302F2F"/>
<path d="M73.5 108.818L93.9844 108.377" stroke="white" stroke-width="3.92765" stroke-linecap="round"/>
<path d="M29.5 93.0002C28.8509 86.488 32.5 60.0002 31.5 63.2502C30.5 66.5002 27.25 79.2502 27.25 79.2502C26.5 82.0002 25 86.5002 25.5 94.2502C26.0048 102.075 28.6666 107.834 29.75 109.75C31.1666 112.417 35.8 118.95 43 123.75C50.2 128.55 57 129.584 59.5 129.5H105.75C101.25 129.5 80 129 75.5 128.5C70.028 127.892 53.75 126 45.75 120.75C42.7864 118.805 35.325 112.242 33 106.75C32.2591 105 30.1491 99.5124 29.5 93.0002Z" fill="#B76AC2" stroke="#B76AC2" stroke-width="0.2"/>
<ellipse cx="113.658" cy="64.519" rx="9.15762" ry="9.01887" fill="black"/>
<ellipse cx="69.1576" cy="64.519" rx="9.15762" ry="9.01887" fill="black"/>
<path d="M49.5 49C53.0513 50.5461 56.5 50.954 59.5 50C62.882 48.9246 65.6232 46.4305 67.5 43.5" stroke="#0F1C3C" stroke-width="2.5" stroke-linecap="round" stroke-linejoin="round"/>
<path d="M120.147 47.8422C117.5 49.9999 112.602 51.4717 109.5 49.4999C106.8 47.7836 104.652 45.6347 104 41.9999" stroke="#0F1C3C" stroke-width="2.5" stroke-linecap="round" stroke-linejoin="round"/>
<path d="M79.0042 120.475C79.2544 120.725 82.6801 124.35 85.0043 124.35C88.0043 124.35 89.0046 122.725 91.0046 120.225" stroke="#D069A9" stroke-width="5" stroke-linecap="round"/>
<defs>
<filter id="filter0_i_0_4033" x="92.0239" y="52.9185" width="32.1078" height="34.1078" filterUnits="userSpaceOnUse" color-interpolation-filters="sRGB">
<feFlood flood-opacity="0" result="BackgroundImageFix"/>
<feBlend mode="normal" in="SourceGraphic" in2="BackgroundImageFix" result="shape"/>
<feColorMatrix in="SourceAlpha" type="matrix" values="0 0 0 0 0 0 0 0 0 0 0 0 0 0 0 0 0 0 127 0" result="hardAlpha"/>
<feOffset dy="2"/>
<feGaussianBlur stdDeviation="1"/>
<feComposite in2="hardAlpha" operator="arithmetic" k2="-1" k3="1"/>
<feColorMatrix type="matrix" values="0 0 0 0 1 0 0 0 0 1 0 0 0 0 1 0 0 0 1 0"/>
<feBlend mode="normal" in2="shape" result="effect1_innerShadow_0_4033"/>
</filter>
</defs>
</svg>
