<svg width="163" height="130" viewBox="0 0 163 130" fill="none" xmlns="http://www.w3.org/2000/svg">
<path d="M126.805 22.3368C131.395 20.7686 136.168 24.1714 136.183 29.0219L136.257 53.7436C136.274 59.5144 129.755 62.8852 125.056 59.5354L101.588 42.8062C96.8891 39.4564 97.9498 32.1949 103.411 30.3292L126.805 22.3368Z" fill="#9CAAC1" stroke="black" stroke-width="0.170768"/>
<path d="M25.4166 33.8854C24.8296 29.0705 29.1443 25.1021 33.8934 26.0891L58.098 31.1194C63.7481 32.2936 65.7009 39.3676 61.4534 43.2741L40.2407 62.7839C35.9932 66.6904 29.107 64.1539 28.4085 58.4254L25.4166 33.8854Z" fill="#99ABC3" stroke="black" stroke-width="0.170768"/>
<path d="M36.7752 40.8588C36.4174 39.4577 37.7106 38.1948 39.1028 38.5855L47.0765 40.8234C48.4688 41.2141 48.9159 42.9655 47.8814 43.9758L41.9565 49.7623C40.922 50.7726 39.1817 50.2842 38.824 48.8831L36.7752 40.8588Z" fill="#0F1C3C"/>
<path d="M116.186 39.5399C115.02 38.685 115.216 36.8882 116.54 36.3056L124.12 32.969C125.443 32.3864 126.901 33.455 126.744 34.8924L125.844 43.1251C125.686 44.5626 124.032 45.2908 122.866 44.436L116.186 39.5399Z" fill="#152056"/>
<path d="M26.6308 82.9417L32.1193 60.9127C36.2897 44.174 51.3234 32.4264 68.5738 32.4264H97.8195C115.256 32.4264 130.4 44.423 134.391 61.3961L139.571 83.4251C145.115 107.006 127.223 129.593 102.999 129.593H63.0853C38.6565 129.593 20.725 106.646 26.6308 82.9417Z" fill="#9EB0C6" stroke="black" stroke-width="0.170768"/>
<circle cx="108.078" cy="68.9724" r="16.0539" fill="white"/>
<circle cx="63.5075" cy="68.9724" r="16.0539" fill="white"/>
<path d="M88.5512 81.2303C93.7589 81.0274 96.933 86.8903 93.9163 91.14L90.2146 96.3546C87.5035 100.174 81.7163 99.788 79.5362 95.6426L76.9231 90.6741C74.7737 86.5871 77.6223 81.656 82.2365 81.4763L88.5512 81.2303Z" fill="#152056"/>
<path d="M122.428 51.0138C119.906 46.7303 116.505 43.7857 112.43 43.6593C108.883 43.5493 104.522 44.6279 102 47.1294" stroke="#0F1C3C" stroke-width="2.5" stroke-linecap="round" stroke-linejoin="round"/>
<ellipse cx="115.158" cy="69.019" rx="9.15762" ry="9.01887" fill="black"/>
<ellipse cx="70.6576" cy="69.019" rx="9.15762" ry="9.01887" fill="black"/>
<path d="M79.75 68.0001C78.75 46.5001 48 47.7501 47.25 68.0001L63.75 68.0001L79.75 68.0001Z" fill="#5672B5"/>
<path d="M124.323 68.1599C123.323 46.6599 92.75 47.9099 92 68.1599L108.5 68.1599L124.323 68.1599Z" fill="#5672B5"/>
<path d="M44 104C52.2 103 72.8333 115.333 73.5 117" stroke="#0F1C3C" stroke-width="2" stroke-linecap="round"/>
<path d="M29.6 93.0252C28.9509 86.513 32.6 60.0252 31.6 63.2752C30.5999 66.5253 27.3499 79.2753 27.3499 79.2753C26.5999 82.0253 25.1 86.5252 25.6 94.2752C26.1048 102.1 28.7666 107.859 29.85 109.775C31.2666 112.442 35.9 118.975 43.1 123.775C50.3 128.575 57.1 129.609 59.6 129.525H105.85C101.35 129.525 80.1 129.025 75.6 128.525C70.128 127.917 53.85 126.025 45.85 120.775C42.8864 118.83 35.4249 112.267 33.1 106.775C32.3591 105.025 30.2491 99.5374 29.6 93.0252Z" fill="#627EA2" stroke="#627EA1" stroke-width="0.05"/>
<path d="M40.5427 107.478C41.5551 106.685 42.7416 105.331 43.7185 103.606C44.6282 101.999 44.6984 99.9619 44.7056 99.5002" stroke="#627EA1" stroke-width="3.5" stroke-linecap="round"/>
<path d="M49.4487 50.9539C51.9704 46.6703 55.3714 43.7258 59.4465 43.5994C62.9936 43.4893 67.3544 44.5679 69.8768 47.0695" stroke="#0F1C3C" stroke-width="2.5" stroke-linecap="round" stroke-linejoin="round"/>
</svg>
