<svg width="212" height="169" viewBox="0 0 212 169" fill="none" xmlns="http://www.w3.org/2000/svg">
<path d="M164.846 29.0377C170.813 26.9991 177.019 31.4228 177.038 37.7284L177.134 69.8666C177.156 77.3687 168.682 81.7507 162.573 77.396L132.065 55.6481C125.956 51.2933 127.335 41.8534 134.434 39.428L164.846 29.0377Z" fill="#9CAAC1" stroke="black" stroke-width="0.221998"/>
<path d="M33.0414 44.051C32.2783 37.7916 37.8875 32.6327 44.0613 33.9158L75.5272 40.4552C82.8724 41.9817 85.411 51.1778 79.8892 56.2564L52.3128 81.619C46.791 86.6975 37.8389 83.4 36.931 75.953L33.0414 44.051Z" fill="#99ABC3" stroke="black" stroke-width="0.221998"/>
<path d="M47.8077 53.1164C47.3426 51.295 49.0237 49.6532 50.8336 50.1612L61.1994 53.0704C63.0093 53.5784 63.5906 55.8551 62.2458 57.1686L54.5434 64.691C53.1986 66.0045 50.9362 65.3695 50.4711 63.5481L47.8077 53.1164Z" fill="#0F1C3C"/>
<path d="M151.042 51.4019C149.526 50.2906 149.781 47.9547 151.502 47.1974L161.356 42.8597C163.076 42.1023 164.971 43.4915 164.767 45.3602L163.597 56.0627C163.392 57.9314 161.242 58.8781 159.725 57.7668L151.042 51.4019Z" fill="#152056"/>
<path d="M34.6201 107.824L41.7551 79.1865C47.1766 57.4262 66.7204 42.1543 89.1459 42.1543H127.165C149.832 42.1543 169.52 57.7498 174.708 79.8149L181.442 108.453C188.65 139.108 165.39 168.471 133.899 168.471H82.0109C50.2534 168.471 26.9425 138.64 34.6201 107.824Z" fill="#9EB0C6" stroke="black" stroke-width="0.221998"/>
<ellipse cx="140.501" cy="89.6641" rx="20.8701" ry="20.8701" fill="white"/>
<ellipse cx="82.5597" cy="89.6641" rx="20.8701" ry="20.8701" fill="white"/>
<path d="M114.987 101.957C121.757 101.694 125.883 109.316 121.962 114.84L117.149 121.619C113.625 126.584 106.102 126.083 103.267 120.694L99.8704 114.234C97.0762 108.921 100.779 102.511 106.778 102.277L114.987 101.957Z" fill="#152056"/>
<ellipse cx="148.27" cy="84.2364" rx="11.9049" ry="11.7245" fill="black"/>
<ellipse cx="90.9102" cy="84.2364" rx="11.9049" ry="11.7245" fill="black"/>
<path d="M64.2832 66.2402C67.5614 60.6716 71.9828 56.8437 77.2804 56.6793C81.8916 56.5363 87.5606 57.9384 90.8398 61.1905" stroke="#0F1C3C" stroke-width="3.25" stroke-linecap="round" stroke-linejoin="round"/>
<path d="M155.257 63.718C151.978 58.1494 147.557 54.3215 142.259 54.1571C137.648 54.0141 131.979 55.4162 128.7 58.6682" stroke="#0F1C3C" stroke-width="3.25" stroke-linecap="round" stroke-linejoin="round"/>
<ellipse cx="110.825" cy="147.225" rx="13.975" ry="17.875" fill="#152056"/>
<path d="M106.6 147.55C105.95 147.225 102.05 144.3 97.175 144.95C96.85 146.575 97.175 152.1 97.825 154.05C99.775 158.925 104 164.775 110.5 165.1C118.625 165.1 123.553 156.659 124.15 153.075C124.475 151.125 124.8 151.125 124.475 147.225C122.958 147.442 117.325 145.925 111.8 151.45C110.175 150.15 107.9 148.525 106.6 147.55Z" fill="#D069A9" stroke="black" stroke-width="0.65" stroke-linecap="round" stroke-linejoin="round"/>
<path d="M111.8 151.45C113.88 153.27 115.05 155.241 115.375 156" stroke="black" stroke-width="0.65"/>
<path d="M38.48 120.933C37.6361 112.467 42.38 78.0325 41.08 82.2576C39.7799 86.4826 35.555 103.058 35.555 103.058C34.58 106.633 32.63 112.483 33.28 122.558C33.9362 132.73 37.3966 140.216 38.805 142.707C40.6466 146.174 46.67 154.668 56.03 160.908C65.39 167.147 74.23 168.491 77.48 168.382H137.605C131.755 168.382 104.13 167.732 98.28 167.082C91.1664 166.292 70.005 163.832 59.605 157.007C55.7523 154.479 46.0524 145.947 43.03 138.808C42.0668 136.533 39.3238 129.398 38.48 120.933Z" fill="#627EA2" stroke="#627EA1" stroke-width="0.065"/>
</svg>
