<svg width="213" height="169" viewBox="0 0 213 169" fill="none" xmlns="http://www.w3.org/2000/svg">
<path d="M165.125 29.0867C171.102 27.0446 177.318 31.4757 177.337 37.792L177.433 69.9845C177.455 77.4992 168.967 81.8887 162.848 77.5266L132.288 55.7419C126.169 51.3798 127.55 41.9239 134.661 39.4944L165.125 29.0867Z" fill="#9CAAC1" stroke="black" stroke-width="0.222373"/>
<path d="M32.987 44.1387C32.2134 37.7932 37.8997 32.5633 44.1584 33.8641L75.6775 40.4145C83.1238 41.962 85.6973 51.2847 80.0996 56.4331L52.4766 81.8386C46.8788 86.987 37.8036 83.644 36.8831 76.0946L32.987 44.1387Z" fill="#99ABC3"/>
<path d="M32.987 44.1387C32.2134 37.7932 37.8997 32.5633 44.1584 33.8641L75.6775 40.4145C83.1238 41.962 85.6973 51.2847 80.0996 56.4331L52.4766 81.8386C46.8788 86.987 37.8036 83.644 36.8831 76.0946L32.987 44.1387Z" stroke="black"/>
<path d="M47.8885 53.206C47.4227 51.3815 49.1066 49.7369 50.9196 50.2457L61.3029 53.1599C63.1159 53.6687 63.6982 55.9493 62.351 57.2649L54.6356 64.8001C53.2885 66.1158 51.0223 65.4797 50.5565 63.6553L47.8885 53.206Z" fill="#0F1C3C"/>
<path d="M151.297 51.4886C149.778 50.3754 150.034 48.0356 151.758 47.2769L161.628 42.9319C163.352 42.1733 165.25 43.5648 165.045 45.4366L163.873 56.1572C163.668 58.0291 161.514 58.9774 159.995 57.8642L151.297 51.4886Z" fill="#152056"/>
<path d="M34.6787 108.006L41.8258 79.3201C47.2565 57.5231 66.8332 42.2253 89.2966 42.2253H127.38C150.085 42.2253 169.806 57.8472 175.003 79.9495L181.749 108.636C188.969 139.342 165.67 168.756 134.125 168.756H82.1495C50.3384 168.756 26.9881 138.874 34.6787 108.006Z" fill="#9EB0C6"/>
<g filter="url(#filter0_i_0_4217)">
<ellipse cx="140.739" cy="86.3054" rx="20.9053" ry="20.9053" fill="white"/>
</g>
<ellipse cx="82.699" cy="86.3054" rx="20.9053" ry="20.9053" fill="white"/>
<path d="M116.933 105.581C123.456 105.571 127.365 112.828 123.767 118.269L119.575 124.608C116.154 129.781 108.445 129.412 105.533 123.936L102.169 117.609C99.2764 112.167 103.214 105.602 109.377 105.593L116.933 105.581Z" fill="#152056"/>
<path d="M38.4148 121.105C37.5695 112.624 42.3214 78.1322 41.0191 82.3644C39.7169 86.5965 35.4848 103.2 35.4848 103.2C34.5082 106.781 32.5549 112.64 33.206 122.732C33.8633 132.922 37.3296 140.421 38.7403 142.916C40.5851 146.389 46.6186 154.897 55.9944 161.147C65.3702 167.398 74.2251 168.743 77.4806 168.635H137.707C131.847 168.635 104.176 167.984 98.3158 167.333C91.1901 166.541 69.993 164.077 59.5755 157.241C55.7163 154.708 46 146.161 42.9725 139.01C42.0077 136.731 39.2601 129.585 38.4148 121.105Z" fill="#627EA2" stroke="#627EA1" stroke-width="0.260439"/>
<path d="M71.76 108.615C66.3 106.47 59.67 100.815 59.085 98.67C62.985 98.085 71.76 100.191 76.44 102.375C82.29 105.105 84.435 107.055 87.36 109.785C83.98 110.11 76.128 110.331 71.76 108.615Z" fill="#9EB0C6" stroke="#9EB0C6" stroke-width="0.39"/>
<g filter="url(#filter1_f_0_4217)">
<path d="M70.1995 101.79C68.6399 101.205 66.7507 100.75 66.105 100.62C65.3998 100.479 63.6745 100.44 62.1834 100.651C61.78 100.708 61.8013 101.214 62.1995 101.3C64.2718 101.75 67.2829 102.545 68.0549 102.765C69.2825 103.116 71.4562 103.782 73.1577 104.48C73.4188 104.587 73.644 104.402 73.4906 104.165C73.0259 103.448 71.8471 102.408 70.1995 101.79Z" fill="white"/>
</g>
<path d="M153.33 86.5799C153.33 93.0661 147.991 98.3242 141.405 98.3242C134.819 98.3242 129.48 93.0661 129.48 86.5799C129.48 80.0937 134.819 74.8356 141.405 74.8356C147.991 74.8356 153.33 80.0937 153.33 86.5799Z" fill="black"/>
<ellipse cx="82.1251" cy="86.6243" rx="11.925" ry="11.7443" fill="black"/>
<path d="M64.3917 66.3518C67.6755 60.7738 72.1043 56.9395 77.4108 56.7748C82.0299 56.6316 87.7085 58.0361 90.9932 61.2936" stroke="#0F1C3C" stroke-width="3.25549" stroke-linecap="round" stroke-linejoin="round"/>
<path d="M155.964 64.515C152.141 59.2918 147.353 55.9176 142.056 56.2824C137.446 56.5999 131.935 58.563 128.991 62.1315" stroke="#0F1C3C" stroke-width="3.25549" stroke-linecap="round" stroke-linejoin="round"/>
<path d="M93.1997 131.43C89.8242 130.466 84.6701 128.166 80.123 124.059C77.0685 121.3 73.5399 122.239 74.2072 126.301C74.5014 128.091 74.8578 129.867 75.2597 131.43C77.0148 138.255 80.3055 143.513 87.5551 151.125C91.4551 155.22 106.47 162.63 113.295 162.63C121.875 162.63 132.785 155.22 136.1 151.905C139.308 148.696 145.628 140.79 147.41 135.72C148.888 131.512 149.785 127.934 150.267 124.063C150.522 122.011 146.95 120.755 145.401 122.125C139.638 127.221 131.667 131.121 129.285 131.82C116.068 135.695 108.225 135.72 93.1997 131.43Z" fill="#152056" stroke="#152056" stroke-width="0.39"/>
<mask id="mask0_0_4217" style="mask-type:alpha" maskUnits="userSpaceOnUse" x="73" y="121" width="78" height="42">
<path d="M93.1997 131.43C89.8242 130.466 84.6701 128.166 80.123 124.059C77.0685 121.3 73.5399 122.239 74.2072 126.301C74.5014 128.091 74.8578 129.867 75.2597 131.43C77.0148 138.255 80.3055 143.513 87.5551 151.125C91.4551 155.22 106.47 162.63 113.295 162.63C121.875 162.63 132.785 155.22 136.1 151.905C139.308 148.696 145.628 140.79 147.41 135.72C148.888 131.512 149.785 127.934 150.267 124.063C150.522 122.011 146.95 120.755 145.401 122.125C139.638 127.221 131.667 131.121 129.285 131.82C116.068 135.695 108.225 135.72 93.1997 131.43Z" fill="#152056" stroke="#152056" stroke-width="0.39"/>
</mask>
<g mask="url(#mask0_0_4217)">
<path d="M153.147 133.228C153.472 133.553 157.933 138.274 160.96 138.274C164.866 138.274 166.169 136.158 168.773 132.902" stroke="#D069A9" stroke-width="6.51098" stroke-linecap="round"/>
<ellipse cx="113.1" cy="151.125" rx="14.43" ry="9.165" fill="url(#paint0_linear_0_4217)"/>
<g filter="url(#filter2_f_0_4217)">
<path d="M112.71 151.125C112.71 151.448 112.972 151.71 113.295 151.71C113.618 151.71 113.88 151.448 113.88 151.125H112.71ZM112.71 143.91C112.71 143.92 112.71 143.93 112.71 143.94C112.71 143.95 112.71 143.96 112.71 143.97C112.71 143.98 112.71 143.99 112.71 144C112.71 144.01 112.71 144.02 112.71 144.03C112.71 144.04 112.71 144.05 112.71 144.06C112.71 144.07 112.71 144.08 112.71 144.09C112.71 144.1 112.71 144.11 112.71 144.12C112.71 144.129 112.71 144.139 112.71 144.149C112.71 144.159 112.71 144.169 112.71 144.179C112.71 144.188 112.71 144.198 112.71 144.208C112.71 144.218 112.71 144.228 112.71 144.237C112.71 144.247 112.71 144.257 112.71 144.267C112.71 144.277 112.71 144.286 112.71 144.296C112.71 144.306 112.71 144.315 112.71 144.325C112.71 144.335 112.71 144.345 112.71 144.354C112.71 144.364 112.71 144.374 112.71 144.383C112.71 144.393 112.71 144.402 112.71 144.412C112.71 144.422 112.71 144.431 112.71 144.441C112.71 144.451 112.71 144.46 112.71 144.47C112.71 144.479 112.71 144.489 112.71 144.498C112.71 144.508 112.71 144.517 112.71 144.527C112.71 144.537 112.71 144.546 112.71 144.556C112.71 144.565 112.71 144.575 112.71 144.584C112.71 144.593 112.71 144.603 112.71 144.612C112.71 144.622 112.71 144.631 112.71 144.641C112.71 144.65 112.71 144.66 112.71 144.669C112.71 144.678 112.71 144.688 112.71 144.697C112.71 144.706 112.71 144.716 112.71 144.725C112.71 144.735 112.71 144.744 112.71 144.753C112.71 144.763 112.71 144.772 112.71 144.781C112.71 144.79 112.71 144.8 112.71 144.809C112.71 144.818 112.71 144.828 112.71 144.837C112.71 144.846 112.71 144.855 112.71 144.865C112.71 144.874 112.71 144.883 112.71 144.892C112.71 144.901 112.71 144.911 112.71 144.92C112.71 144.929 112.71 144.938 112.71 144.947C112.71 144.956 112.71 144.966 112.71 144.975C112.71 144.984 112.71 144.993 112.71 145.002C112.71 145.011 112.71 145.02 112.71 145.029C112.71 145.038 112.71 145.047 112.71 145.057C112.71 145.066 112.71 145.075 112.71 145.084C112.71 145.093 112.71 145.102 112.71 145.111C112.71 145.12 112.71 145.129 112.71 145.138C112.71 145.147 112.71 145.156 112.71 145.165C112.71 145.174 112.71 145.183 112.71 145.191C112.71 145.2 112.71 145.209 112.71 145.218C112.71 145.227 112.71 145.236 112.71 145.245C112.71 145.254 112.71 145.263 112.71 145.272C112.71 145.28 112.71 145.289 112.71 145.298C112.71 145.307 112.71 145.316 112.71 145.325C112.71 145.333 112.71 145.342 112.71 145.351C112.71 145.36 112.71 145.369 112.71 145.377C112.71 145.386 112.71 145.395 112.71 145.404C112.71 145.412 112.71 145.421 112.71 145.43C112.71 145.438 112.71 145.447 112.71 145.456C112.71 145.465 112.71 145.473 112.71 145.482C112.71 145.491 112.71 145.499 112.71 145.508C112.71 145.517 112.71 145.525 112.71 145.534C112.71 145.542 112.71 145.551 112.71 145.56C112.71 145.568 112.71 145.577 112.71 145.585C112.71 145.594 112.71 145.602 112.71 145.611C112.71 145.62 112.71 145.628 112.71 145.637C112.71 145.645 112.71 145.654 112.71 145.662C112.71 145.671 112.71 145.679 112.71 145.688C112.71 145.696 112.71 145.705 112.71 145.713C112.71 145.722 112.71 145.73 112.71 145.738C112.71 145.747 112.71 145.755 112.71 145.764C112.71 145.772 112.71 145.78 112.71 145.789C112.71 145.797 112.71 145.806 112.71 145.814C112.71 145.822 112.71 145.831 112.71 145.839C112.71 145.847 112.71 145.856 112.71 145.864C112.71 145.872 112.71 145.881 112.71 145.889C112.71 145.897 112.71 145.905 112.71 145.914C112.71 145.922 112.71 145.93 112.71 145.938C112.71 145.947 112.71 145.955 112.71 145.963C112.71 145.971 112.71 145.98 112.71 145.988C112.71 145.996 112.71 146.004 112.71 146.012C112.71 146.02 112.71 146.029 112.71 146.037C112.71 146.045 112.71 146.053 112.71 146.061C112.71 146.069 112.71 146.077 112.71 146.086C112.71 146.094 112.71 146.102 112.71 146.11C112.71 146.118 112.71 146.126 112.71 146.134C112.71 146.142 112.71 146.15 112.71 146.158C112.71 146.166 112.71 146.174 112.71 146.182C112.71 146.19 112.71 146.198 112.71 146.206C112.71 146.214 112.71 146.222 112.71 146.23C112.71 146.238 112.71 146.246 112.71 146.254C112.71 146.262 112.71 146.27 112.71 146.278C112.71 146.286 112.71 146.294 112.71 146.301C112.71 146.309 112.71 146.317 112.71 146.325C112.71 146.333 112.71 146.341 112.71 146.349C112.71 146.357 112.71 146.364 112.71 146.372C112.71 146.38 112.71 146.388 112.71 146.396C112.71 146.403 112.71 146.411 112.71 146.419C112.71 146.427 112.71 146.435 112.71 146.442C112.71 146.45 112.71 146.458 112.71 146.465C112.71 146.473 112.71 146.481 112.71 146.489C112.71 146.496 112.71 146.504 112.71 146.512C112.71 146.519 112.71 146.527 112.71 146.535C112.71 146.542 112.71 146.55 112.71 146.558C112.71 146.565 112.71 146.573 112.71 146.581C112.71 146.588 112.71 146.596 112.71 146.603C112.71 146.611 112.71 146.619 112.71 146.626C112.71 146.634 112.71 146.641 112.71 146.649C112.71 146.656 112.71 146.664 112.71 146.671C112.71 146.679 112.71 146.686 112.71 146.694C112.71 146.701 112.71 146.709 112.71 146.716C112.71 146.724 112.71 146.731 112.71 146.739C112.71 146.746 112.71 146.754 112.71 146.761C112.71 146.769 112.71 146.776 112.71 146.783C112.71 146.791 112.71 146.798 112.71 146.806C112.71 146.813 112.71 146.82 112.71 146.828C112.71 146.835 112.71 146.843 112.71 146.85C112.71 146.857 112.71 146.865 112.71 146.872C112.71 146.879 112.71 146.887 112.71 146.894C112.71 146.901 112.71 146.908 112.71 146.916C112.71 146.923 112.71 146.93 112.71 146.937C112.71 146.945 112.71 146.952 112.71 146.959C112.71 146.966 112.71 146.974 112.71 146.981C112.71 146.988 112.71 146.995 112.71 147.002C112.71 147.01 112.71 147.017 112.71 147.024C112.71 147.031 112.71 147.038 112.71 147.045C112.71 147.053 112.71 147.06 112.71 147.067C112.71 147.074 112.71 147.081 112.71 147.088C112.71 147.095 112.71 147.102 112.71 147.109C112.71 147.117 112.71 147.124 112.71 147.131C112.71 147.138 112.71 147.145 112.71 147.152C112.71 147.159 112.71 147.166 112.71 147.173C112.71 147.18 112.71 147.187 112.71 147.194C112.71 147.201 112.71 147.208 112.71 147.215C112.71 147.222 112.71 147.229 112.71 147.236C112.71 147.243 112.71 147.25 112.71 147.256C112.71 147.263 112.71 147.27 112.71 147.277C112.71 147.284 112.71 147.291 112.71 147.298C112.71 147.305 112.71 147.312 112.71 147.318C112.71 147.325 112.71 147.332 112.71 147.339C112.71 147.346 112.71 147.353 112.71 147.359C112.71 147.366 112.71 147.373 112.71 147.38C112.71 147.387 112.71 147.393 112.71 147.4C112.71 147.407 112.71 147.414 112.71 147.421C112.71 147.427 112.71 147.434 112.71 147.441C112.71 147.447 112.71 147.454 112.71 147.461C112.71 147.468 112.71 147.474 112.71 147.481C112.71 147.488 112.71 147.494 112.71 147.501C112.71 147.508 112.71 147.514 112.71 147.521C112.71 147.528 112.71 147.534 112.71 147.541C112.71 147.547 112.71 147.554 112.71 147.561C112.71 147.567 112.71 147.574 112.71 147.58C112.71 147.587 112.71 147.594 112.71 147.6C112.71 147.607 112.71 147.613 112.71 147.62C112.71 147.626 112.71 147.633 112.71 147.639C112.71 147.646 112.71 147.652 112.71 147.659C112.71 147.665 112.71 147.672 112.71 147.678C112.71 147.685 112.71 147.691 112.71 147.698C112.71 147.704 112.71 147.71 112.71 147.717C112.71 147.723 112.71 147.73 112.71 147.736C112.71 147.743 112.71 147.749 112.71 147.755C112.71 147.762 112.71 147.768 112.71 147.774C112.71 147.781 112.71 147.787 112.71 147.793C112.71 147.8 112.71 147.806 112.71 147.812C112.71 147.819 112.71 147.825 112.71 147.831C112.71 147.838 112.71 147.844 112.71 147.85C112.71 147.857 112.71 147.863 112.71 147.869C112.71 147.875 112.71 147.882 112.71 147.888C112.71 147.894 112.71 147.9 112.71 147.906C112.71 147.913 112.71 147.919 112.71 147.925C112.71 147.931 112.71 147.937 112.71 147.944C112.71 147.95 112.71 147.956 112.71 147.962C112.71 147.968 112.71 147.974 112.71 147.98C112.71 147.987 112.71 147.993 112.71 147.999C112.71 148.005 112.71 148.011 112.71 148.017C112.71 148.023 112.71 148.029 112.71 148.035C112.71 148.041 112.71 148.047 112.71 148.054C112.71 148.06 112.71 148.066 112.71 148.072C112.71 148.078 112.71 148.084 112.71 148.09C112.71 148.096 112.71 148.102 112.71 148.108C112.71 148.114 112.71 148.12 112.71 148.126C112.71 148.132 112.71 148.137 112.71 148.143C112.71 148.149 112.71 148.155 112.71 148.161C112.71 148.167 112.71 148.173 112.71 148.179C112.71 148.185 112.71 148.191 112.71 148.197C112.71 148.203 112.71 148.208 112.71 148.214C112.71 148.22 112.71 148.226 112.71 148.232C112.71 148.238 112.71 148.243 112.71 148.249C112.71 148.255 112.71 148.261 112.71 148.267C112.71 148.272 112.71 148.278 112.71 148.284C112.71 148.29 112.71 148.296 112.71 148.301C112.71 148.307 112.71 148.313 112.71 148.319C112.71 148.324 112.71 148.33 112.71 148.336C112.71 148.341 112.71 148.347 112.71 148.353C112.71 148.359 112.71 148.364 112.71 148.37C112.71 148.376 112.71 148.381 112.71 148.387C112.71 148.393 112.71 148.398 112.71 148.404C112.71 148.409 112.71 148.415 112.71 148.421C112.71 148.426 112.71 148.432 112.71 148.438C112.71 148.443 112.71 148.449 112.71 148.454C112.71 148.46 112.71 148.465 112.71 148.471C112.71 148.476 112.71 148.482 112.71 148.488C112.71 148.493 112.71 148.499 112.71 148.504C112.71 148.51 112.71 148.515 112.71 148.521C112.71 148.526 112.71 148.532 112.71 148.537C112.71 148.543 112.71 148.548 112.71 148.553C112.71 148.559 112.71 148.564 112.71 148.57C112.71 148.575 112.71 148.581 112.71 148.586C112.71 148.591 112.71 148.597 112.71 148.602C112.71 148.608 112.71 148.613 112.71 148.618C112.71 148.624 112.71 148.629 112.71 148.634C112.71 148.64 112.71 148.645 112.71 148.65C112.71 148.656 112.71 148.661 112.71 148.666C112.71 148.672 112.71 148.677 112.71 148.682C112.71 148.688 112.71 148.693 112.71 148.698C112.71 148.703 112.71 148.709 112.71 148.714C112.71 148.719 112.71 148.724 112.71 148.73C112.71 148.735 112.71 148.74 112.71 148.745C112.71 148.751 112.71 148.756 112.71 148.761C112.71 148.766 112.71 148.771 112.71 148.777C112.71 148.782 112.71 148.787 112.71 148.792C112.71 148.797 112.71 148.802 112.71 148.807C112.71 148.813 112.71 148.818 112.71 148.823C112.71 148.828 112.71 148.833 112.71 148.838C112.71 148.843 112.71 148.848 112.71 148.853C112.71 148.858 112.71 148.864 112.71 148.869C112.71 148.874 112.71 148.879 112.71 148.884C112.71 148.889 112.71 148.894 112.71 148.899C112.71 148.904 112.71 148.909 112.71 148.914C112.71 148.919 112.71 148.924 112.71 148.929C112.71 148.934 112.71 148.939 112.71 148.944C112.71 148.949 112.71 148.954 112.71 148.959C112.71 148.963 112.71 148.968 112.71 148.973C112.71 148.978 112.71 148.983 112.71 148.988C112.71 148.993 112.71 148.998 112.71 149.003C112.71 149.008 112.71 149.012 112.71 149.017C112.71 149.022 112.71 149.027 112.71 149.032C112.71 149.037 112.71 149.042 112.71 149.046C112.71 149.051 112.71 149.056 112.71 149.061C112.71 149.066 112.71 149.07 112.71 149.075C112.71 149.08 112.71 149.085 112.71 149.089C112.71 149.094 112.71 149.099 112.71 149.104C112.71 149.108 112.71 149.113 112.71 149.118C112.71 149.123 112.71 149.127 112.71 149.132C112.71 149.137 112.71 149.142 112.71 149.146C112.71 149.151 112.71 149.156 112.71 149.16C112.71 149.165 112.71 149.17 112.71 149.174C112.71 149.179 112.71 149.184 112.71 149.188C112.71 149.193 112.71 149.197 112.71 149.202C112.71 149.207 112.71 149.211 112.71 149.216C112.71 149.22 112.71 149.225 112.71 149.23C112.71 149.234 112.71 149.239 112.71 149.243C112.71 149.248 112.71 149.252 112.71 149.257C112.71 149.261 112.71 149.266 112.71 149.27C112.71 149.275 112.71 149.279 112.71 149.284C112.71 149.288 112.71 149.293 112.71 149.297C112.71 149.302 112.71 149.306 112.71 149.311C112.71 149.315 112.71 149.32 112.71 149.324C112.71 149.329 112.71 149.333 112.71 149.338C112.71 149.342 112.71 149.346 112.71 149.351C112.71 149.355 112.71 149.36 112.71 149.364C112.71 149.368 112.71 149.373 112.71 149.377C112.71 149.381 112.71 149.386 112.71 149.39C112.71 149.395 112.71 149.399 112.71 149.403C112.71 149.408 112.71 149.412 112.71 149.416C112.71 149.42 112.71 149.425 112.71 149.429C112.71 149.433 112.71 149.438 112.71 149.442C112.71 149.446 112.71 149.45 112.71 149.455C112.71 149.459 112.71 149.463 112.71 149.467C112.71 149.472 112.71 149.476 112.71 149.48C112.71 149.484 112.71 149.489 112.71 149.493C112.71 149.497 112.71 149.501 112.71 149.505C112.71 149.51 112.71 149.514 112.71 149.518C112.71 149.522 112.71 149.526 112.71 149.53C112.71 149.535 112.71 149.539 112.71 149.543C112.71 149.547 112.71 149.551 112.71 149.555C112.71 149.559 112.71 149.563 112.71 149.567C112.71 149.572 112.71 149.576 112.71 149.58C112.71 149.584 112.71 149.588 112.71 149.592C112.71 149.596 112.71 149.6 112.71 149.604C112.71 149.608 112.71 149.612 112.71 149.616C112.71 149.62 112.71 149.624 112.71 149.628C112.71 149.632 112.71 149.636 112.71 149.64C112.71 149.644 112.71 149.648 112.71 149.652C112.71 149.656 112.71 149.66 112.71 149.664C112.71 149.668 112.71 149.672 112.71 149.676C112.71 149.68 112.71 149.684 112.71 149.687C112.71 149.691 112.71 149.695 112.71 149.699C112.71 149.703 112.71 149.707 112.71 149.711C112.71 149.715 112.71 149.719 112.71 149.722C112.71 149.726 112.71 149.73 112.71 149.734C112.71 149.738 112.71 149.742 112.71 149.745C112.71 149.749 112.71 149.753 112.71 149.757C112.71 149.761 112.71 149.765 112.71 149.768C112.71 149.772 112.71 149.776 112.71 149.78C112.71 149.783 112.71 149.787 112.71 149.791C112.71 149.795 112.71 149.798 112.71 149.802C112.71 149.806 112.71 149.81 112.71 149.813C112.71 149.817 112.71 149.821 112.71 149.824C112.71 149.828 112.71 149.832 112.71 149.836C112.71 149.839 112.71 149.843 112.71 149.847C112.71 149.85 112.71 149.854 112.71 149.857C112.71 149.861 112.71 149.865 112.71 149.868C112.71 149.872 112.71 149.876 112.71 149.879C112.71 149.883 112.71 149.886 112.71 149.89C112.71 149.894 112.71 149.897 112.71 149.901C112.71 149.904 112.71 149.908 112.71 149.912C112.71 149.915 112.71 149.919 112.71 149.922C112.71 149.926 112.71 149.929 112.71 149.933C112.71 149.936 112.71 149.94 112.71 149.943C112.71 149.947 112.71 149.95 112.71 149.954C112.71 149.957 112.71 149.961 112.71 149.964C112.71 149.968 112.71 149.971 112.71 149.975C112.71 149.978 112.71 149.982 112.71 149.985C112.71 149.988 112.71 149.992 112.71 149.995C112.71 149.999 112.71 150.002 112.71 150.005C112.71 150.009 112.71 150.012 112.71 150.016C112.71 150.019 112.71 150.022 112.71 150.026C112.71 150.029 112.71 150.033 112.71 150.036C112.71 150.039 112.71 150.043 112.71 150.046C112.71 150.049 112.71 150.053 112.71 150.056C112.71 150.059 112.71 150.063 112.71 150.066C112.71 150.069 112.71 150.072 112.71 150.076C112.71 150.079 112.71 150.082 112.71 150.086C112.71 150.089 112.71 150.092 112.71 150.095C112.71 150.099 112.71 150.102 112.71 150.105C112.71 150.108 112.71 150.111 112.71 150.115C112.71 150.118 112.71 150.121 112.71 150.124C112.71 150.128 112.71 150.131 112.71 150.134C112.71 150.137 112.71 150.14 112.71 150.143C112.71 150.147 112.71 150.15 112.71 150.153C112.71 150.156 112.71 150.159 112.71 150.162C112.71 150.165 112.71 150.169 112.71 150.172C112.71 150.175 112.71 150.178 112.71 150.181C112.71 150.184 112.71 150.187 112.71 150.19C112.71 150.193 112.71 150.196 112.71 150.199C112.71 150.203 112.71 150.206 112.71 150.209C112.71 150.212 112.71 150.215 112.71 150.218C112.71 150.221 112.71 150.224 112.71 150.227C112.71 150.23 112.71 150.233 112.71 150.236C112.71 150.239 112.71 150.242 112.71 150.245C112.71 150.248 112.71 150.251 112.71 150.254C112.71 150.257 112.71 150.26 112.71 150.263C112.71 150.266 112.71 150.269 112.71 150.271C112.71 150.274 112.71 150.277 112.71 150.28C112.71 150.283 112.71 150.286 112.71 150.289C112.71 150.292 112.71 150.295 112.71 150.298C112.71 150.301 112.71 150.303 112.71 150.306C112.71 150.309 112.71 150.312 112.71 150.315C112.71 150.318 112.71 150.321 112.71 150.323C112.71 150.326 112.71 150.329 112.71 150.332C112.71 150.335 112.71 150.338 112.71 150.34C112.71 150.343 112.71 150.346 112.71 150.349C112.71 150.351 112.71 150.354 112.71 150.357C112.71 150.36 112.71 150.363 112.71 150.365C112.71 150.368 112.71 150.371 112.71 150.374C112.71 150.376 112.71 150.379 112.71 150.382C112.71 150.384 112.71 150.387 112.71 150.39C112.71 150.393 112.71 150.395 112.71 150.398C112.71 150.401 112.71 150.403 112.71 150.406C112.71 150.409 112.71 150.411 112.71 150.414C112.71 150.417 112.71 150.419 112.71 150.422C112.71 150.425 112.71 150.427 112.71 150.43C112.71 150.433 112.71 150.435 112.71 150.438C112.71 150.44 112.71 150.443 112.71 150.446C112.71 150.448 112.71 150.451 112.71 150.453C112.71 150.456 112.71 150.458 112.71 150.461C112.71 150.464 112.71 150.466 112.71 150.469C112.71 150.471 112.71 150.474 112.71 150.476C112.71 150.479 112.71 150.481 112.71 150.484C112.71 150.486 112.71 150.489 112.71 150.491C112.71 150.494 112.71 150.496 112.71 150.499C112.71 150.501 112.71 150.504 112.71 150.506C112.71 150.509 112.71 150.511 112.71 150.514C112.71 150.516 112.71 150.519 112.71 150.521C112.71 150.523 112.71 150.526 112.71 150.528C112.71 150.531 112.71 150.533 112.71 150.536C112.71 150.538 112.71 150.54 112.71 150.543C112.71 150.545 112.71 150.548 112.71 150.55C112.71 150.552 112.71 150.555 112.71 150.557C112.71 150.559 112.71 150.562 112.71 150.564C112.71 150.566 112.71 150.569 112.71 150.571C112.71 150.573 112.71 150.576 112.71 150.578C112.71 150.58 112.71 150.583 112.71 150.585C112.71 150.587 112.71 150.59 112.71 150.592C112.71 150.594 112.71 150.596 112.71 150.599C112.71 150.601 112.71 150.603 112.71 150.605C112.71 150.608 112.71 150.61 112.71 150.612C112.71 150.614 112.71 150.617 112.71 150.619C112.71 150.621 112.71 150.623 112.71 150.626C112.71 150.628 112.71 150.63 112.71 150.632C112.71 150.634 112.71 150.636 112.71 150.639C112.71 150.641 112.71 150.643 112.71 150.645C112.71 150.647 112.71 150.649 112.71 150.652C112.71 150.654 112.71 150.656 112.71 150.658C112.71 150.66 112.71 150.662 112.71 150.664C112.71 150.667 112.71 150.669 112.71 150.671C112.71 150.673 112.71 150.675 112.71 150.677C112.71 150.679 112.71 150.681 112.71 150.683C112.71 150.685 112.71 150.687 112.71 150.689C112.71 150.692 112.71 150.694 112.71 150.696C112.71 150.698 112.71 150.7 112.71 150.702C112.71 150.704 112.71 150.706 112.71 150.708C112.71 150.71 112.71 150.712 112.71 150.714C112.71 150.716 112.71 150.718 112.71 150.72C112.71 150.722 112.71 150.724 112.71 150.726C112.71 150.728 112.71 150.73 112.71 150.732C112.71 150.734 112.71 150.735 112.71 150.737C112.71 150.739 112.71 150.741 112.71 150.743C112.71 150.745 112.71 150.747 112.71 150.749C112.71 150.751 112.71 150.753 112.71 150.755C112.71 150.757 112.71 150.758 112.71 150.76C112.71 150.762 112.71 150.764 112.71 150.766C112.71 150.768 112.71 150.77 112.71 150.772C112.71 150.773 112.71 150.775 112.71 150.777C112.71 150.779 112.71 150.781 112.71 150.783C112.71 150.784 112.71 150.786 112.71 150.788C112.71 150.79 112.71 150.792 112.71 150.793C112.71 150.795 112.71 150.797 112.71 150.799C112.71 150.801 112.71 150.802 112.71 150.804C112.71 150.806 112.71 150.808 112.71 150.809C112.71 150.811 112.71 150.813 112.71 150.815C112.71 150.816 112.71 150.818 112.71 150.82C112.71 150.821 112.71 150.823 112.71 150.825C112.71 150.827 112.71 150.828 112.71 150.83C112.71 150.832 112.71 150.833 112.71 150.835C112.71 150.837 112.71 150.838 112.71 150.84C112.71 150.842 112.71 150.843 112.71 150.845C112.71 150.847 112.71 150.848 112.71 150.85C112.71 150.852 112.71 150.853 112.71 150.855C112.71 150.856 112.71 150.858 112.71 150.86C112.71 150.861 112.71 150.863 112.71 150.864C112.71 150.866 112.71 150.868 112.71 150.869C112.71 150.871 112.71 150.872 112.71 150.874C112.71 150.876 112.71 150.877 112.71 150.879C112.71 150.88 112.71 150.882 112.71 150.883C112.71 150.885 112.71 150.886 112.71 150.888C112.71 150.889 112.71 150.891 112.71 150.892C112.71 150.894 112.71 150.895 112.71 150.897C112.71 150.898 112.71 150.9 112.71 150.901C112.71 150.903 112.71 150.904 112.71 150.906C112.71 150.907 112.71 150.909 112.71 150.91C112.71 150.912 112.71 150.913 112.71 150.915C112.71 150.916 112.71 150.917 112.71 150.919C112.71 150.92 112.71 150.922 112.71 150.923C112.71 150.924 112.71 150.926 112.71 150.927C112.71 150.929 112.71 150.93 112.71 150.931C112.71 150.933 112.71 150.934 112.71 150.936C112.71 150.937 112.71 150.938 112.71 150.94C112.71 150.941 112.71 150.942 112.71 150.944C112.71 150.945 112.71 150.946 112.71 150.948C112.71 150.949 112.71 150.95 112.71 150.952C112.71 150.953 112.71 150.954 112.71 150.956C112.71 150.957 112.71 150.958 112.71 150.96C112.71 150.961 112.71 150.962 112.71 150.963C112.71 150.965 112.71 150.966 112.71 150.967C112.71 150.969 112.71 150.97 112.71 150.971C112.71 150.972 112.71 150.974 112.71 150.975C112.71 150.976 112.71 150.977 112.71 150.978C112.71 150.98 112.71 150.981 112.71 150.982C112.71 150.983 112.71 150.985 112.71 150.986C112.71 150.987 112.71 150.988 112.71 150.989C112.71 150.99 112.71 150.992 112.71 150.993C112.71 150.994 112.71 150.995 112.71 150.996C112.71 150.997 112.71 150.999 112.71 151C112.71 151.001 112.71 151.002 112.71 151.003C112.71 151.004 112.71 151.005 112.71 151.007C112.71 151.008 112.71 151.009 112.71 151.01C112.71 151.011 112.71 151.012 112.71 151.013C112.71 151.014 112.71 151.015 112.71 151.016C112.71 151.018 112.71 151.019 112.71 151.02C112.71 151.021 112.71 151.022 112.71 151.023C112.71 151.024 112.71 151.025 112.71 151.026C112.71 151.027 112.71 151.028 112.71 151.029C112.71 151.03 112.71 151.031 112.71 151.032C112.71 151.033 112.71 151.034 112.71 151.035C112.71 151.036 112.71 151.037 112.71 151.038C112.71 151.039 112.71 151.04 112.71 151.041C112.71 151.042 112.71 151.043 112.71 151.044C112.71 151.045 112.71 151.046 112.71 151.047C112.71 151.048 112.71 151.049 112.71 151.05C112.71 151.051 112.71 151.052 112.71 151.052C112.71 151.053 112.71 151.054 112.71 151.055C112.71 151.056 112.71 151.057 112.71 151.058C112.71 151.059 112.71 151.06 112.71 151.061C112.71 151.062 112.71 151.062 112.71 151.063C112.71 151.064 112.71 151.065 112.71 151.066C112.71 151.067 112.71 151.068 112.71 151.068C112.71 151.069 112.71 151.07 112.71 151.071C112.71 151.072 112.71 151.073 112.71 151.073C112.71 151.074 112.71 151.075 112.71 151.076C112.71 151.077 112.71 151.078 112.71 151.078C112.71 151.079 112.71 151.08 112.71 151.081C112.71 151.081 112.71 151.082 112.71 151.083C112.71 151.084 112.71 151.085 112.71 151.085C112.71 151.086 112.71 151.087 112.71 151.088C112.71 151.088 112.71 151.089 112.71 151.09C112.71 151.091 112.71 151.091 112.71 151.092C112.71 151.093 112.71 151.093 112.71 151.094C112.71 151.095 112.71 151.096 112.71 151.096C112.71 151.097 112.71 151.098 112.71 151.098C112.71 151.099 112.71 151.1 112.71 151.1C112.71 151.101 112.71 151.102 112.71 151.102C112.71 151.103 112.71 151.104 112.71 151.104C112.71 151.105 112.71 151.106 112.71 151.106C112.71 151.107 112.71 151.108 112.71 151.108C112.71 151.109 112.71 151.11 112.71 151.11C112.71 151.111 112.71 151.111 112.71 151.112C112.71 151.113 112.71 151.113 112.71 151.114C112.71 151.114 112.71 151.115 112.71 151.115C112.71 151.116 112.71 151.117 112.71 151.117C112.71 151.118 112.71 151.118 112.71 151.119C112.71 151.119 112.71 151.12 112.71 151.121C112.71 151.121 112.71 151.122 112.71 151.122C112.71 151.123 112.71 151.123 112.71 151.124C112.71 151.124 112.71 151.125 112.71 151.125H113.88C113.88 151.125 113.88 151.124 113.88 151.124C113.88 151.123 113.88 151.123 113.88 151.122C113.88 151.122 113.88 151.121 113.88 151.121C113.88 151.12 113.88 151.119 113.88 151.119C113.88 151.118 113.88 151.118 113.88 151.117C113.88 151.117 113.88 151.116 113.88 151.115C113.88 151.115 113.88 151.114 113.88 151.114C113.88 151.113 113.88 151.113 113.88 151.112C113.88 151.111 113.88 151.111 113.88 151.11C113.88 151.11 113.88 151.109 113.88 151.108C113.88 151.108 113.88 151.107 113.88 151.106C113.88 151.106 113.88 151.105 113.88 151.104C113.88 151.104 113.88 151.103 113.88 151.102C113.88 151.102 113.88 151.101 113.88 151.1C113.88 151.1 113.88 151.099 113.88 151.098C113.88 151.098 113.88 151.097 113.88 151.096C113.88 151.096 113.88 151.095 113.88 151.094C113.88 151.093 113.88 151.093 113.88 151.092C113.88 151.091 113.88 151.091 113.88 151.09C113.88 151.089 113.88 151.088 113.88 151.088C113.88 151.087 113.88 151.086 113.88 151.085C113.88 151.085 113.88 151.084 113.88 151.083C113.88 151.082 113.88 151.081 113.88 151.081C113.88 151.08 113.88 151.079 113.88 151.078C113.88 151.078 113.88 151.077 113.88 151.076C113.88 151.075 113.88 151.074 113.88 151.073C113.88 151.073 113.88 151.072 113.88 151.071C113.88 151.07 113.88 151.069 113.88 151.068C113.88 151.068 113.88 151.067 113.88 151.066C113.88 151.065 113.88 151.064 113.88 151.063C113.88 151.062 113.88 151.062 113.88 151.061C113.88 151.06 113.88 151.059 113.88 151.058C113.88 151.057 113.88 151.056 113.88 151.055C113.88 151.054 113.88 151.053 113.88 151.052C113.88 151.052 113.88 151.051 113.88 151.05C113.88 151.049 113.88 151.048 113.88 151.047C113.88 151.046 113.88 151.045 113.88 151.044C113.88 151.043 113.88 151.042 113.88 151.041C113.88 151.04 113.88 151.039 113.88 151.038C113.88 151.037 113.88 151.036 113.88 151.035C113.88 151.034 113.88 151.033 113.88 151.032C113.88 151.031 113.88 151.03 113.88 151.029C113.88 151.028 113.88 151.027 113.88 151.026C113.88 151.025 113.88 151.024 113.88 151.023C113.88 151.022 113.88 151.021 113.88 151.02C113.88 151.019 113.88 151.018 113.88 151.016C113.88 151.015 113.88 151.014 113.88 151.013C113.88 151.012 113.88 151.011 113.88 151.01C113.88 151.009 113.88 151.008 113.88 151.007C113.88 151.005 113.88 151.004 113.88 151.003C113.88 151.002 113.88 151.001 113.88 151C113.88 150.999 113.88 150.997 113.88 150.996C113.88 150.995 113.88 150.994 113.88 150.993C113.88 150.992 113.88 150.99 113.88 150.989C113.88 150.988 113.88 150.987 113.88 150.986C113.88 150.985 113.88 150.983 113.88 150.982C113.88 150.981 113.88 150.98 113.88 150.978C113.88 150.977 113.88 150.976 113.88 150.975C113.88 150.974 113.88 150.972 113.88 150.971C113.88 150.97 113.88 150.969 113.88 150.967C113.88 150.966 113.88 150.965 113.88 150.963C113.88 150.962 113.88 150.961 113.88 150.96C113.88 150.958 113.88 150.957 113.88 150.956C113.88 150.954 113.88 150.953 113.88 150.952C113.88 150.95 113.88 150.949 113.88 150.948C113.88 150.946 113.88 150.945 113.88 150.944C113.88 150.942 113.88 150.941 113.88 150.94C113.88 150.938 113.88 150.937 113.88 150.936C113.88 150.934 113.88 150.933 113.88 150.931C113.88 150.93 113.88 150.929 113.88 150.927C113.88 150.926 113.88 150.924 113.88 150.923C113.88 150.922 113.88 150.92 113.88 150.919C113.88 150.917 113.88 150.916 113.88 150.915C113.88 150.913 113.88 150.912 113.88 150.91C113.88 150.909 113.88 150.907 113.88 150.906C113.88 150.904 113.88 150.903 113.88 150.901C113.88 150.9 113.88 150.898 113.88 150.897C113.88 150.895 113.88 150.894 113.88 150.892C113.88 150.891 113.88 150.889 113.88 150.888C113.88 150.886 113.88 150.885 113.88 150.883C113.88 150.882 113.88 150.88 113.88 150.879C113.88 150.877 113.88 150.876 113.88 150.874C113.88 150.872 113.88 150.871 113.88 150.869C113.88 150.868 113.88 150.866 113.88 150.864C113.88 150.863 113.88 150.861 113.88 150.86C113.88 150.858 113.88 150.856 113.88 150.855C113.88 150.853 113.88 150.852 113.88 150.85C113.88 150.848 113.88 150.847 113.88 150.845C113.88 150.843 113.88 150.842 113.88 150.84C113.88 150.838 113.88 150.837 113.88 150.835C113.88 150.833 113.88 150.832 113.88 150.83C113.88 150.828 113.88 150.827 113.88 150.825C113.88 150.823 113.88 150.821 113.88 150.82C113.88 150.818 113.88 150.816 113.88 150.815C113.88 150.813 113.88 150.811 113.88 150.809C113.88 150.808 113.88 150.806 113.88 150.804C113.88 150.802 113.88 150.801 113.88 150.799C113.88 150.797 113.88 150.795 113.88 150.793C113.88 150.792 113.88 150.79 113.88 150.788C113.88 150.786 113.88 150.784 113.88 150.783C113.88 150.781 113.88 150.779 113.88 150.777C113.88 150.775 113.88 150.773 113.88 150.772C113.88 150.77 113.88 150.768 113.88 150.766C113.88 150.764 113.88 150.762 113.88 150.76C113.88 150.758 113.88 150.757 113.88 150.755C113.88 150.753 113.88 150.751 113.88 150.749C113.88 150.747 113.88 150.745 113.88 150.743C113.88 150.741 113.88 150.739 113.88 150.737C113.88 150.735 113.88 150.734 113.88 150.732C113.88 150.73 113.88 150.728 113.88 150.726C113.88 150.724 113.88 150.722 113.88 150.72C113.88 150.718 113.88 150.716 113.88 150.714C113.88 150.712 113.88 150.71 113.88 150.708C113.88 150.706 113.88 150.704 113.88 150.702C113.88 150.7 113.88 150.698 113.88 150.696C113.88 150.694 113.88 150.692 113.88 150.689C113.88 150.687 113.88 150.685 113.88 150.683C113.88 150.681 113.88 150.679 113.88 150.677C113.88 150.675 113.88 150.673 113.88 150.671C113.88 150.669 113.88 150.667 113.88 150.664C113.88 150.662 113.88 150.66 113.88 150.658C113.88 150.656 113.88 150.654 113.88 150.652C113.88 150.649 113.88 150.647 113.88 150.645C113.88 150.643 113.88 150.641 113.88 150.639C113.88 150.636 113.88 150.634 113.88 150.632C113.88 150.63 113.88 150.628 113.88 150.626C113.88 150.623 113.88 150.621 113.88 150.619C113.88 150.617 113.88 150.614 113.88 150.612C113.88 150.61 113.88 150.608 113.88 150.605C113.88 150.603 113.88 150.601 113.88 150.599C113.88 150.596 113.88 150.594 113.88 150.592C113.88 150.59 113.88 150.587 113.88 150.585C113.88 150.583 113.88 150.58 113.88 150.578C113.88 150.576 113.88 150.573 113.88 150.571C113.88 150.569 113.88 150.566 113.88 150.564C113.88 150.562 113.88 150.559 113.88 150.557C113.88 150.555 113.88 150.552 113.88 150.55C113.88 150.548 113.88 150.545 113.88 150.543C113.88 150.54 113.88 150.538 113.88 150.536C113.88 150.533 113.88 150.531 113.88 150.528C113.88 150.526 113.88 150.523 113.88 150.521C113.88 150.519 113.88 150.516 113.88 150.514C113.88 150.511 113.88 150.509 113.88 150.506C113.88 150.504 113.88 150.501 113.88 150.499C113.88 150.496 113.88 150.494 113.88 150.491C113.88 150.489 113.88 150.486 113.88 150.484C113.88 150.481 113.88 150.479 113.88 150.476C113.88 150.474 113.88 150.471 113.88 150.469C113.88 150.466 113.88 150.464 113.88 150.461C113.88 150.458 113.88 150.456 113.88 150.453C113.88 150.451 113.88 150.448 113.88 150.446C113.88 150.443 113.88 150.44 113.88 150.438C113.88 150.435 113.88 150.433 113.88 150.43C113.88 150.427 113.88 150.425 113.88 150.422C113.88 150.419 113.88 150.417 113.88 150.414C113.88 150.411 113.88 150.409 113.88 150.406C113.88 150.403 113.88 150.401 113.88 150.398C113.88 150.395 113.88 150.393 113.88 150.39C113.88 150.387 113.88 150.384 113.88 150.382C113.88 150.379 113.88 150.376 113.88 150.374C113.88 150.371 113.88 150.368 113.88 150.365C113.88 150.363 113.88 150.36 113.88 150.357C113.88 150.354 113.88 150.351 113.88 150.349C113.88 150.346 113.88 150.343 113.88 150.34C113.88 150.338 113.88 150.335 113.88 150.332C113.88 150.329 113.88 150.326 113.88 150.323C113.88 150.321 113.88 150.318 113.88 150.315C113.88 150.312 113.88 150.309 113.88 150.306C113.88 150.303 113.88 150.301 113.88 150.298C113.88 150.295 113.88 150.292 113.88 150.289C113.88 150.286 113.88 150.283 113.88 150.28C113.88 150.277 113.88 150.274 113.88 150.271C113.88 150.269 113.88 150.266 113.88 150.263C113.88 150.26 113.88 150.257 113.88 150.254C113.88 150.251 113.88 150.248 113.88 150.245C113.88 150.242 113.88 150.239 113.88 150.236C113.88 150.233 113.88 150.23 113.88 150.227C113.88 150.224 113.88 150.221 113.88 150.218C113.88 150.215 113.88 150.212 113.88 150.209C113.88 150.206 113.88 150.203 113.88 150.199C113.88 150.196 113.88 150.193 113.88 150.19C113.88 150.187 113.88 150.184 113.88 150.181C113.88 150.178 113.88 150.175 113.88 150.172C113.88 150.169 113.88 150.165 113.88 150.162C113.88 150.159 113.88 150.156 113.88 150.153C113.88 150.15 113.88 150.147 113.88 150.143C113.88 150.14 113.88 150.137 113.88 150.134C113.88 150.131 113.88 150.128 113.88 150.124C113.88 150.121 113.88 150.118 113.88 150.115C113.88 150.111 113.88 150.108 113.88 150.105C113.88 150.102 113.88 150.099 113.88 150.095C113.88 150.092 113.88 150.089 113.88 150.086C113.88 150.082 113.88 150.079 113.88 150.076C113.88 150.072 113.88 150.069 113.88 150.066C113.88 150.063 113.88 150.059 113.88 150.056C113.88 150.053 113.88 150.049 113.88 150.046C113.88 150.043 113.88 150.039 113.88 150.036C113.88 150.033 113.88 150.029 113.88 150.026C113.88 150.022 113.88 150.019 113.88 150.016C113.88 150.012 113.88 150.009 113.88 150.005C113.88 150.002 113.88 149.999 113.88 149.995C113.88 149.992 113.88 149.988 113.88 149.985C113.88 149.982 113.88 149.978 113.88 149.975C113.88 149.971 113.88 149.968 113.88 149.964C113.88 149.961 113.88 149.957 113.88 149.954C113.88 149.95 113.88 149.947 113.88 149.943C113.88 149.94 113.88 149.936 113.88 149.933C113.88 149.929 113.88 149.926 113.88 149.922C113.88 149.919 113.88 149.915 113.88 149.912C113.88 149.908 113.88 149.904 113.88 149.901C113.88 149.897 113.88 149.894 113.88 149.89C113.88 149.886 113.88 149.883 113.88 149.879C113.88 149.876 113.88 149.872 113.88 149.868C113.88 149.865 113.88 149.861 113.88 149.857C113.88 149.854 113.88 149.85 113.88 149.847C113.88 149.843 113.88 149.839 113.88 149.836C113.88 149.832 113.88 149.828 113.88 149.824C113.88 149.821 113.88 149.817 113.88 149.813C113.88 149.81 113.88 149.806 113.88 149.802C113.88 149.798 113.88 149.795 113.88 149.791C113.88 149.787 113.88 149.783 113.88 149.78C113.88 149.776 113.88 149.772 113.88 149.768C113.88 149.765 113.88 149.761 113.88 149.757C113.88 149.753 113.88 149.749 113.88 149.745C113.88 149.742 113.88 149.738 113.88 149.734C113.88 149.73 113.88 149.726 113.88 149.722C113.88 149.719 113.88 149.715 113.88 149.711C113.88 149.707 113.88 149.703 113.88 149.699C113.88 149.695 113.88 149.691 113.88 149.687C113.88 149.684 113.88 149.68 113.88 149.676C113.88 149.672 113.88 149.668 113.88 149.664C113.88 149.66 113.88 149.656 113.88 149.652C113.88 149.648 113.88 149.644 113.88 149.64C113.88 149.636 113.88 149.632 113.88 149.628C113.88 149.624 113.88 149.62 113.88 149.616C113.88 149.612 113.88 149.608 113.88 149.604C113.88 149.6 113.88 149.596 113.88 149.592C113.88 149.588 113.88 149.584 113.88 149.58C113.88 149.576 113.88 149.572 113.88 149.567C113.88 149.563 113.88 149.559 113.88 149.555C113.88 149.551 113.88 149.547 113.88 149.543C113.88 149.539 113.88 149.535 113.88 149.53C113.88 149.526 113.88 149.522 113.88 149.518C113.88 149.514 113.88 149.51 113.88 149.505C113.88 149.501 113.88 149.497 113.88 149.493C113.88 149.489 113.88 149.484 113.88 149.48C113.88 149.476 113.88 149.472 113.88 149.467C113.88 149.463 113.88 149.459 113.88 149.455C113.88 149.45 113.88 149.446 113.88 149.442C113.88 149.438 113.88 149.433 113.88 149.429C113.88 149.425 113.88 149.42 113.88 149.416C113.88 149.412 113.88 149.408 113.88 149.403C113.88 149.399 113.88 149.395 113.88 149.39C113.88 149.386 113.88 149.381 113.88 149.377C113.88 149.373 113.88 149.368 113.88 149.364C113.88 149.36 113.88 149.355 113.88 149.351C113.88 149.346 113.88 149.342 113.88 149.338C113.88 149.333 113.88 149.329 113.88 149.324C113.88 149.32 113.88 149.315 113.88 149.311C113.88 149.306 113.88 149.302 113.88 149.297C113.88 149.293 113.88 149.288 113.88 149.284C113.88 149.279 113.88 149.275 113.88 149.27C113.88 149.266 113.88 149.261 113.88 149.257C113.88 149.252 113.88 149.248 113.88 149.243C113.88 149.239 113.88 149.234 113.88 149.23C113.88 149.225 113.88 149.22 113.88 149.216C113.88 149.211 113.88 149.207 113.88 149.202C113.88 149.197 113.88 149.193 113.88 149.188C113.88 149.184 113.88 149.179 113.88 149.174C113.88 149.17 113.88 149.165 113.88 149.16C113.88 149.156 113.88 149.151 113.88 149.146C113.88 149.142 113.88 149.137 113.88 149.132C113.88 149.127 113.88 149.123 113.88 149.118C113.88 149.113 113.88 149.108 113.88 149.104C113.88 149.099 113.88 149.094 113.88 149.089C113.88 149.085 113.88 149.08 113.88 149.075C113.88 149.07 113.88 149.066 113.88 149.061C113.88 149.056 113.88 149.051 113.88 149.046C113.88 149.042 113.88 149.037 113.88 149.032C113.88 149.027 113.88 149.022 113.88 149.017C113.88 149.012 113.88 149.008 113.88 149.003C113.88 148.998 113.88 148.993 113.88 148.988C113.88 148.983 113.88 148.978 113.88 148.973C113.88 148.968 113.88 148.963 113.88 148.959C113.88 148.954 113.88 148.949 113.88 148.944C113.88 148.939 113.88 148.934 113.88 148.929C113.88 148.924 113.88 148.919 113.88 148.914C113.88 148.909 113.88 148.904 113.88 148.899C113.88 148.894 113.88 148.889 113.88 148.884C113.88 148.879 113.88 148.874 113.88 148.869C113.88 148.864 113.88 148.858 113.88 148.853C113.88 148.848 113.88 148.843 113.88 148.838C113.88 148.833 113.88 148.828 113.88 148.823C113.88 148.818 113.88 148.813 113.88 148.807C113.88 148.802 113.88 148.797 113.88 148.792C113.88 148.787 113.88 148.782 113.88 148.777C113.88 148.771 113.88 148.766 113.88 148.761C113.88 148.756 113.88 148.751 113.88 148.745C113.88 148.74 113.88 148.735 113.88 148.73C113.88 148.724 113.88 148.719 113.88 148.714C113.88 148.709 113.88 148.703 113.88 148.698C113.88 148.693 113.88 148.688 113.88 148.682C113.88 148.677 113.88 148.672 113.88 148.666C113.88 148.661 113.88 148.656 113.88 148.65C113.88 148.645 113.88 148.64 113.88 148.634C113.88 148.629 113.88 148.624 113.88 148.618C113.88 148.613 113.88 148.608 113.88 148.602C113.88 148.597 113.88 148.591 113.88 148.586C113.88 148.581 113.88 148.575 113.88 148.57C113.88 148.564 113.88 148.559 113.88 148.553C113.88 148.548 113.88 148.543 113.88 148.537C113.88 148.532 113.88 148.526 113.88 148.521C113.88 148.515 113.88 148.51 113.88 148.504C113.88 148.499 113.88 148.493 113.88 148.488C113.88 148.482 113.88 148.476 113.88 148.471C113.88 148.465 113.88 148.46 113.88 148.454C113.88 148.449 113.88 148.443 113.88 148.438C113.88 148.432 113.88 148.426 113.88 148.421C113.88 148.415 113.88 148.409 113.88 148.404C113.88 148.398 113.88 148.393 113.88 148.387C113.88 148.381 113.88 148.376 113.88 148.37C113.88 148.364 113.88 148.359 113.88 148.353C113.88 148.347 113.88 148.341 113.88 148.336C113.88 148.33 113.88 148.324 113.88 148.319C113.88 148.313 113.88 148.307 113.88 148.301C113.88 148.296 113.88 148.29 113.88 148.284C113.88 148.278 113.88 148.272 113.88 148.267C113.88 148.261 113.88 148.255 113.88 148.249C113.88 148.243 113.88 148.238 113.88 148.232C113.88 148.226 113.88 148.22 113.88 148.214C113.88 148.208 113.88 148.203 113.88 148.197C113.88 148.191 113.88 148.185 113.88 148.179C113.88 148.173 113.88 148.167 113.88 148.161C113.88 148.155 113.88 148.149 113.88 148.143C113.88 148.137 113.88 148.132 113.88 148.126C113.88 148.12 113.88 148.114 113.88 148.108C113.88 148.102 113.88 148.096 113.88 148.09C113.88 148.084 113.88 148.078 113.88 148.072C113.88 148.066 113.88 148.06 113.88 148.054C113.88 148.047 113.88 148.041 113.88 148.035C113.88 148.029 113.88 148.023 113.88 148.017C113.88 148.011 113.88 148.005 113.88 147.999C113.88 147.993 113.88 147.987 113.88 147.98C113.88 147.974 113.88 147.968 113.88 147.962C113.88 147.956 113.88 147.95 113.88 147.944C113.88 147.937 113.88 147.931 113.88 147.925C113.88 147.919 113.88 147.913 113.88 147.906C113.88 147.9 113.88 147.894 113.88 147.888C113.88 147.882 113.88 147.875 113.88 147.869C113.88 147.863 113.88 147.857 113.88 147.85C113.88 147.844 113.88 147.838 113.88 147.831C113.88 147.825 113.88 147.819 113.88 147.812C113.88 147.806 113.88 147.8 113.88 147.793C113.88 147.787 113.88 147.781 113.88 147.774C113.88 147.768 113.88 147.762 113.88 147.755C113.88 147.749 113.88 147.743 113.88 147.736C113.88 147.73 113.88 147.723 113.88 147.717C113.88 147.71 113.88 147.704 113.88 147.698C113.88 147.691 113.88 147.685 113.88 147.678C113.88 147.672 113.88 147.665 113.88 147.659C113.88 147.652 113.88 147.646 113.88 147.639C113.88 147.633 113.88 147.626 113.88 147.62C113.88 147.613 113.88 147.607 113.88 147.6C113.88 147.594 113.88 147.587 113.88 147.58C113.88 147.574 113.88 147.567 113.88 147.561C113.88 147.554 113.88 147.547 113.88 147.541C113.88 147.534 113.88 147.528 113.88 147.521C113.88 147.514 113.88 147.508 113.88 147.501C113.88 147.494 113.88 147.488 113.88 147.481C113.88 147.474 113.88 147.468 113.88 147.461C113.88 147.454 113.88 147.447 113.88 147.441C113.88 147.434 113.88 147.427 113.88 147.421C113.88 147.414 113.88 147.407 113.88 147.4C113.88 147.393 113.88 147.387 113.88 147.38C113.88 147.373 113.88 147.366 113.88 147.359C113.88 147.353 113.88 147.346 113.88 147.339C113.88 147.332 113.88 147.325 113.88 147.318C113.88 147.312 113.88 147.305 113.88 147.298C113.88 147.291 113.88 147.284 113.88 147.277C113.88 147.27 113.88 147.263 113.88 147.256C113.88 147.25 113.88 147.243 113.88 147.236C113.88 147.229 113.88 147.222 113.88 147.215C113.88 147.208 113.88 147.201 113.88 147.194C113.88 147.187 113.88 147.18 113.88 147.173C113.88 147.166 113.88 147.159 113.88 147.152C113.88 147.145 113.88 147.138 113.88 147.131C113.88 147.124 113.88 147.117 113.88 147.109C113.88 147.102 113.88 147.095 113.88 147.088C113.88 147.081 113.88 147.074 113.88 147.067C113.88 147.06 113.88 147.053 113.88 147.045C113.88 147.038 113.88 147.031 113.88 147.024C113.88 147.017 113.88 147.01 113.88 147.002C113.88 146.995 113.88 146.988 113.88 146.981C113.88 146.974 113.88 146.966 113.88 146.959C113.88 146.952 113.88 146.945 113.88 146.937C113.88 146.93 113.88 146.923 113.88 146.916C113.88 146.908 113.88 146.901 113.88 146.894C113.88 146.887 113.88 146.879 113.88 146.872C113.88 146.865 113.88 146.857 113.88 146.85C113.88 146.843 113.88 146.835 113.88 146.828C113.88 146.82 113.88 146.813 113.88 146.806C113.88 146.798 113.88 146.791 113.88 146.783C113.88 146.776 113.88 146.769 113.88 146.761C113.88 146.754 113.88 146.746 113.88 146.739C113.88 146.731 113.88 146.724 113.88 146.716C113.88 146.709 113.88 146.701 113.88 146.694C113.88 146.686 113.88 146.679 113.88 146.671C113.88 146.664 113.88 146.656 113.88 146.649C113.88 146.641 113.88 146.634 113.88 146.626C113.88 146.619 113.88 146.611 113.88 146.603C113.88 146.596 113.88 146.588 113.88 146.581C113.88 146.573 113.88 146.565 113.88 146.558C113.88 146.55 113.88 146.542 113.88 146.535C113.88 146.527 113.88 146.519 113.88 146.512C113.88 146.504 113.88 146.496 113.88 146.489C113.88 146.481 113.88 146.473 113.88 146.465C113.88 146.458 113.88 146.45 113.88 146.442C113.88 146.435 113.88 146.427 113.88 146.419C113.88 146.411 113.88 146.403 113.88 146.396C113.88 146.388 113.88 146.38 113.88 146.372C113.88 146.364 113.88 146.357 113.88 146.349C113.88 146.341 113.88 146.333 113.88 146.325C113.88 146.317 113.88 146.309 113.88 146.301C113.88 146.294 113.88 146.286 113.88 146.278C113.88 146.27 113.88 146.262 113.88 146.254C113.88 146.246 113.88 146.238 113.88 146.23C113.88 146.222 113.88 146.214 113.88 146.206C113.88 146.198 113.88 146.19 113.88 146.182C113.88 146.174 113.88 146.166 113.88 146.158C113.88 146.15 113.88 146.142 113.88 146.134C113.88 146.126 113.88 146.118 113.88 146.11C113.88 146.102 113.88 146.094 113.88 146.086C113.88 146.077 113.88 146.069 113.88 146.061C113.88 146.053 113.88 146.045 113.88 146.037C113.88 146.029 113.88 146.02 113.88 146.012C113.88 146.004 113.88 145.996 113.88 145.988C113.88 145.98 113.88 145.971 113.88 145.963C113.88 145.955 113.88 145.947 113.88 145.938C113.88 145.93 113.88 145.922 113.88 145.914C113.88 145.905 113.88 145.897 113.88 145.889C113.88 145.881 113.88 145.872 113.88 145.864C113.88 145.856 113.88 145.847 113.88 145.839C113.88 145.831 113.88 145.822 113.88 145.814C113.88 145.806 113.88 145.797 113.88 145.789C113.88 145.78 113.88 145.772 113.88 145.764C113.88 145.755 113.88 145.747 113.88 145.738C113.88 145.73 113.88 145.722 113.88 145.713C113.88 145.705 113.88 145.696 113.88 145.688C113.88 145.679 113.88 145.671 113.88 145.662C113.88 145.654 113.88 145.645 113.88 145.637C113.88 145.628 113.88 145.62 113.88 145.611C113.88 145.602 113.88 145.594 113.88 145.585C113.88 145.577 113.88 145.568 113.88 145.56C113.88 145.551 113.88 145.542 113.88 145.534C113.88 145.525 113.88 145.517 113.88 145.508C113.88 145.499 113.88 145.491 113.88 145.482C113.88 145.473 113.88 145.465 113.88 145.456C113.88 145.447 113.88 145.438 113.88 145.43C113.88 145.421 113.88 145.412 113.88 145.404C113.88 145.395 113.88 145.386 113.88 145.377C113.88 145.369 113.88 145.36 113.88 145.351C113.88 145.342 113.88 145.333 113.88 145.325C113.88 145.316 113.88 145.307 113.88 145.298C113.88 145.289 113.88 145.28 113.88 145.272C113.88 145.263 113.88 145.254 113.88 145.245C113.88 145.236 113.88 145.227 113.88 145.218C113.88 145.209 113.88 145.2 113.88 145.191C113.88 145.183 113.88 145.174 113.88 145.165C113.88 145.156 113.88 145.147 113.88 145.138C113.88 145.129 113.88 145.12 113.88 145.111C113.88 145.102 113.88 145.093 113.88 145.084C113.88 145.075 113.88 145.066 113.88 145.057C113.88 145.047 113.88 145.038 113.88 145.029C113.88 145.02 113.88 145.011 113.88 145.002C113.88 144.993 113.88 144.984 113.88 144.975C113.88 144.966 113.88 144.956 113.88 144.947C113.88 144.938 113.88 144.929 113.88 144.92C113.88 144.911 113.88 144.901 113.88 144.892C113.88 144.883 113.88 144.874 113.88 144.865C113.88 144.855 113.88 144.846 113.88 144.837C113.88 144.828 113.88 144.818 113.88 144.809C113.88 144.8 113.88 144.79 113.88 144.781C113.88 144.772 113.88 144.763 113.88 144.753C113.88 144.744 113.88 144.735 113.88 144.725C113.88 144.716 113.88 144.706 113.88 144.697C113.88 144.688 113.88 144.678 113.88 144.669C113.88 144.66 113.88 144.65 113.88 144.641C113.88 144.631 113.88 144.622 113.88 144.612C113.88 144.603 113.88 144.593 113.88 144.584C113.88 144.575 113.88 144.565 113.88 144.556C113.88 144.546 113.88 144.537 113.88 144.527C113.88 144.517 113.88 144.508 113.88 144.498C113.88 144.489 113.88 144.479 113.88 144.47C113.88 144.46 113.88 144.451 113.88 144.441C113.88 144.431 113.88 144.422 113.88 144.412C113.88 144.402 113.88 144.393 113.88 144.383C113.88 144.374 113.88 144.364 113.88 144.354C113.88 144.345 113.88 144.335 113.88 144.325C113.88 144.315 113.88 144.306 113.88 144.296C113.88 144.286 113.88 144.277 113.88 144.267C113.88 144.257 113.88 144.247 113.88 144.237C113.88 144.228 113.88 144.218 113.88 144.208C113.88 144.198 113.88 144.188 113.88 144.179C113.88 144.169 113.88 144.159 113.88 144.149C113.88 144.139 113.88 144.129 113.88 144.12C113.88 144.11 113.88 144.1 113.88 144.09C113.88 144.08 113.88 144.07 113.88 144.06C113.88 144.05 113.88 144.04 113.88 144.03C113.88 144.02 113.88 144.01 113.88 144C113.88 143.99 113.88 143.98 113.88 143.97C113.88 143.96 113.88 143.95 113.88 143.94C113.88 143.93 113.88 143.92 113.88 143.91H112.71Z" fill="url(#paint1_linear_0_4217)"/>
</g>
<g filter="url(#filter3_f_0_4217)">
<path d="M109.59 158.34C111.509 158.897 112.277 159.12 113.813 159.12C115.041 159.12 116.969 158.6 117.78 158.34" stroke="url(#paint2_linear_0_4217)" stroke-width="1.95" stroke-linecap="round"/>
</g>
<path d="M100.62 134.55H112.32H122.85" stroke="white" stroke-width="4.68" stroke-linecap="round"/>
</g>
<defs>
<filter id="filter0_i_0_4217" x="119.833" y="65.4" width="41.8107" height="44.4151" filterUnits="userSpaceOnUse" color-interpolation-filters="sRGB">
<feFlood flood-opacity="0" result="BackgroundImageFix"/>
<feBlend mode="normal" in="SourceGraphic" in2="BackgroundImageFix" result="shape"/>
<feColorMatrix in="SourceAlpha" type="matrix" values="0 0 0 0 0 0 0 0 0 0 0 0 0 0 0 0 0 0 127 0" result="hardAlpha"/>
<feOffset dy="2.60439"/>
<feGaussianBlur stdDeviation="1.3022"/>
<feComposite in2="hardAlpha" operator="arithmetic" k2="-1" k3="1"/>
<feColorMatrix type="matrix" values="0 0 0 0 1 0 0 0 0 1 0 0 0 0 1 0 0 0 1 0"/>
<feBlend mode="normal" in2="shape" result="effect1_innerShadow_0_4217"/>
</filter>
<filter id="filter1_f_0_4217" x="60.3307" y="98.9438" width="14.7698" height="7.12745" filterUnits="userSpaceOnUse" color-interpolation-filters="sRGB">
<feFlood flood-opacity="0" result="BackgroundImageFix"/>
<feBlend mode="normal" in="SourceGraphic" in2="BackgroundImageFix" result="shape"/>
<feGaussianBlur stdDeviation="0.78" result="effect1_foregroundBlur_0_4217"/>
</filter>
<filter id="filter2_f_0_4217" x="111.852" y="143.052" width="2.88592" height="9.51605" filterUnits="userSpaceOnUse" color-interpolation-filters="sRGB">
<feFlood flood-opacity="0" result="BackgroundImageFix"/>
<feBlend mode="normal" in="SourceGraphic" in2="BackgroundImageFix" result="shape"/>
<feGaussianBlur stdDeviation="0.429" result="effect1_foregroundBlur_0_4217"/>
</filter>
<filter id="filter3_f_0_4217" x="107.055" y="155.805" width="13.2605" height="5.85022" filterUnits="userSpaceOnUse" color-interpolation-filters="sRGB">
<feFlood flood-opacity="0" result="BackgroundImageFix"/>
<feBlend mode="normal" in="SourceGraphic" in2="BackgroundImageFix" result="shape"/>
<feGaussianBlur stdDeviation="0.78" result="effect1_foregroundBlur_0_4217"/>
</filter>
<linearGradient id="paint0_linear_0_4217" x1="114.075" y1="159.705" x2="110.37" y2="144.495" gradientUnits="userSpaceOnUse">
<stop stop-color="#D0696F"/>
<stop offset="0.68" stop-color="#D06989" stop-opacity="0.55"/>
<stop offset="1" stop-color="#D069A9" stop-opacity="0"/>
</linearGradient>
<linearGradient id="paint1_linear_0_4217" x1="113.795" y1="143.91" x2="113.795" y2="149.76" gradientUnits="userSpaceOnUse">
<stop offset="0.168439" stop-color="#2F0E0E" stop-opacity="0"/>
<stop offset="1" stop-color="#2F0E0E"/>
</linearGradient>
<linearGradient id="paint2_linear_0_4217" x1="113.813" y1="158.21" x2="113.813" y2="159.9" gradientUnits="userSpaceOnUse">
<stop stop-color="#DAAAAA"/>
<stop offset="1" stop-color="#DAAAAA" stop-opacity="0"/>
</linearGradient>
</defs>
</svg>
