<svg width="84" height="81" viewBox="0 0 84 81" fill="none" xmlns="http://www.w3.org/2000/svg">
<path d="M0 58.6151V53.1151C0 40.9648 9.84974 31.1151 22 31.1151H45.8021C62.7583 31.1151 73.3405 49.4886 64.8315 64.1552L61.6406 69.6552C57.7046 76.4394 50.4545 80.6151 42.6112 80.6151H22C9.84974 80.6151 0 70.7654 0 58.6151Z" fill="#9EB0C6"/>
<path d="M2.70082 9.56363C2.99536 4.28185 7.51586 0.238896 12.7976 0.533438C19.6444 0.915252 24.8853 6.77516 24.5034 13.6219L22.4606 50.2544L0.499956 49.0298L2.70082 9.56363Z" fill="#9EB0C6"/>
<path d="M66.5 46.1151C66 48.3651 59 52.7651 35 52.3651" stroke="#5672B5" stroke-width="1.5"/>
<path d="M66.5 59.6151C66 61.8651 59 66.2651 35 65.8651" stroke="#5672B5" stroke-width="1.5"/>
</svg>
