<svg width="212" height="173" viewBox="0 0 212 173" fill="none" xmlns="http://www.w3.org/2000/svg">
<path d="M164.846 29.0374C170.813 26.9988 177.019 31.4224 177.038 37.7281L177.134 69.8662C177.156 77.3683 168.682 81.7503 162.573 77.3956L132.065 55.6477C125.956 51.293 127.335 41.853 134.434 39.4276L164.846 29.0374Z" fill="#9CAAC1" stroke="black" stroke-width="0.221998"/>
<path d="M32.9314 44.0639C32.159 37.7291 37.8358 32.5081 44.084 33.8066L75.5499 40.346C82.9836 41.8909 85.5528 51.1979 79.9645 56.3376L52.3881 81.7002C46.7998 86.8399 37.7398 83.5026 36.8209 75.966L32.9314 44.0639Z" fill="#99ABC3"/>
<path d="M32.9314 44.0639C32.159 37.7291 37.8358 32.5081 44.084 33.8066L75.5499 40.346C82.9836 41.8909 85.5528 51.1979 79.9645 56.3376L52.3881 81.7002C46.7998 86.8399 37.7398 83.5026 36.8209 75.966L32.9314 44.0639Z" stroke="black"/>
<path d="M47.8077 53.1163C47.3426 51.2949 49.0237 49.6531 50.8336 50.1611L61.1994 53.0703C63.0093 53.5783 63.5906 55.855 62.2458 57.1685L54.5434 64.6909C53.1986 66.0044 50.9362 65.3694 50.4711 63.548L47.8077 53.1163Z" fill="#0F1C3C"/>
<path d="M151.042 51.4019C149.526 50.2906 149.781 47.9547 151.502 47.1974L161.356 42.8597C163.076 42.1023 164.971 43.4915 164.767 45.3602L163.597 56.0627C163.392 57.9314 161.242 58.8781 159.725 57.7668L151.042 51.4019Z" fill="#152056"/>
<path d="M34.6201 107.824L41.7551 79.1861C47.1766 57.4259 66.7204 42.1539 89.1459 42.1539H127.165C149.832 42.1539 169.52 57.7494 174.708 79.8145L181.442 108.452C188.65 139.107 165.39 168.471 133.899 168.471H82.0109C50.2534 168.471 26.9425 138.639 34.6201 107.824Z" fill="#9EB0C6"/>
<g filter="url(#filter0_i_0_4093)">
<ellipse cx="140.501" cy="89.6641" rx="20.8701" ry="20.8701" fill="white"/>
</g>
<ellipse cx="82.5598" cy="89.6641" rx="20.8701" ry="20.8701" fill="white"/>
<path d="M116.736 105.403C123.248 105.393 127.15 112.638 123.558 118.069L119.373 124.398C115.958 129.563 108.262 129.194 105.355 123.727L101.997 117.41C99.1088 111.978 103.04 105.424 109.192 105.415L116.736 105.403Z" fill="#152056"/>
<path d="M91.6193 153.552C85.0509 149.265 87.9456 139.068 95.7869 138.871L122.593 138.197C130.029 138.01 133.665 147.191 128.118 152.146L116.366 162.646C113.672 165.053 109.698 165.353 106.673 163.378L91.6193 153.552Z" fill="#302F2F"/>
<path d="M95.55 141.464L122.18 140.89" stroke="white" stroke-width="5.10595" stroke-linecap="round"/>
<path d="M38.35 120.9C37.5061 112.434 42.25 78.0002 40.95 82.2252C39.6499 86.4502 35.425 103.025 35.425 103.025C34.45 106.6 32.5 112.45 33.15 122.525C33.8062 132.697 37.2666 140.183 38.675 142.675C40.5166 146.142 46.54 154.635 55.9 160.875C65.26 167.115 74.1 168.458 77.35 168.35H137.475C131.625 168.35 104 167.7 98.15 167.05C91.0364 166.26 69.875 163.8 59.475 156.975C55.6223 154.447 45.9224 145.914 42.9 138.775C41.9368 136.5 39.1938 129.366 38.35 120.9Z" fill="#627EA2" stroke="#627EA1" stroke-width="0.26"/>
<ellipse cx="147.755" cy="83.8743" rx="11.9049" ry="11.7245" fill="black"/>
<ellipse cx="89.9049" cy="83.8743" rx="11.9049" ry="11.7245" fill="black"/>
<path d="M63.7935 64.8211C69.8094 67.1802 75.6507 67.4641 79.9208 64.3245C83.6377 61.5916 87.2335 56.9901 87.8072 52.4075" stroke="#0F1C3C" stroke-width="3.25" stroke-linecap="round" stroke-linejoin="round"/>
<path d="M157.426 62.1433C151.834 65.382 146.102 66.5428 141.408 64.0824C137.321 61.9408 133.073 57.9337 131.816 53.4899" stroke="#0F1C3C" stroke-width="3.25" stroke-linecap="round" stroke-linejoin="round"/>
<path d="M102.706 156.617C103.031 156.942 107.484 161.654 110.506 161.655C114.406 161.655 115.706 159.542 118.306 156.292" stroke="#D069A9" stroke-width="6.5" stroke-linecap="round"/>
<defs>
<filter id="filter0_i_0_4093" x="119.631" y="68.7941" width="41.7401" height="44.3401" filterUnits="userSpaceOnUse" color-interpolation-filters="sRGB">
<feFlood flood-opacity="0" result="BackgroundImageFix"/>
<feBlend mode="normal" in="SourceGraphic" in2="BackgroundImageFix" result="shape"/>
<feColorMatrix in="SourceAlpha" type="matrix" values="0 0 0 0 0 0 0 0 0 0 0 0 0 0 0 0 0 0 127 0" result="hardAlpha"/>
<feOffset dy="2.6"/>
<feGaussianBlur stdDeviation="1.3"/>
<feComposite in2="hardAlpha" operator="arithmetic" k2="-1" k3="1"/>
<feColorMatrix type="matrix" values="0 0 0 0 1 0 0 0 0 1 0 0 0 0 1 0 0 0 1 0"/>
<feBlend mode="normal" in2="shape" result="effect1_innerShadow_0_4093"/>
</filter>
</defs>
</svg>
