<svg width="212" height="169" viewBox="0 0 212 169" fill="none" xmlns="http://www.w3.org/2000/svg">
<path d="M177.038 37.7284L177.134 69.8666C177.156 77.3687 168.682 81.7507 162.573 77.396L132.065 55.6481C125.956 51.2933 127.335 41.8534 134.434 39.428L164.846 29.0378C170.813 26.9991 177.019 31.4228 177.038 37.7284Z" fill="#9CAAC1" stroke="black" stroke-width="0.221998"/>
<path d="M44.0614 33.9158L75.5273 40.4552C82.8725 41.9817 85.4112 51.1778 79.8894 56.2564L52.313 81.619C46.7912 86.6975 37.8391 83.4 36.9311 75.953L33.0416 44.0509C32.2784 37.7916 37.8876 32.6327 44.0614 33.9158Z" fill="#99ABC3" stroke="black" stroke-width="0.221998"/>
<path d="M47.8077 53.1164C47.3426 51.295 49.0237 49.6532 50.8336 50.1612L61.1994 53.0704C63.0093 53.5784 63.5906 55.8551 62.2458 57.1686L54.5434 64.691C53.1986 66.0045 50.9362 65.3695 50.4711 63.5481L47.8077 53.1164Z" fill="#0F1C3C"/>
<path d="M151.042 51.4019C149.526 50.2906 149.781 47.9547 151.502 47.1973L161.356 42.8597C163.076 42.1023 164.971 43.4915 164.767 45.3602L163.597 56.0627C163.392 57.9314 161.242 58.8781 159.725 57.7668L151.042 51.4019Z" fill="#152056"/>
<path d="M34.6201 107.824L41.7551 79.1865C47.1766 57.4262 66.7204 42.1543 89.1459 42.1543H127.165C149.832 42.1543 169.52 57.7498 174.708 79.8149L181.442 108.453C188.65 139.108 165.39 168.471 133.899 168.471H82.0109C50.2534 168.471 26.9425 138.64 34.6201 107.824Z" fill="#9EB0C6" stroke="black" stroke-width="0.221998"/>
<circle cx="140.501" cy="89.664" r="20.8701" fill="white"/>
<circle cx="82.5598" cy="89.664" r="20.8701" fill="white"/>
<path d="M115.117 105.599C121.887 105.336 126.013 112.957 122.091 118.482L117.279 125.261C113.755 130.226 106.231 129.724 103.397 124.335L100 117.876C97.2059 112.563 100.909 106.153 106.907 105.919L115.117 105.599Z" fill="#152056"/>
<path d="M159.157 66.3179C155.878 60.7493 151.457 56.9214 146.159 56.7571C141.548 56.614 135.879 58.0162 132.6 61.2682" stroke="#0F1C3C" stroke-width="3.25" stroke-linecap="round" stroke-linejoin="round"/>
<ellipse cx="149.705" cy="89.7247" rx="11.9049" ry="11.7245" fill="black"/>
<ellipse cx="91.8549" cy="89.7247" rx="11.9049" ry="11.7245" fill="black"/>
<path d="M103.675 88.4002C102.375 60.4501 62.4 62.0752 61.425 88.4002L82.875 88.4002L103.675 88.4002Z" fill="#5672B5"/>
<path d="M161.62 88.6078C160.32 60.6578 120.575 62.2828 119.6 88.6078L141.05 88.6078L161.62 88.6078Z" fill="#5672B5"/>
<path d="M57.2 135.2C67.86 133.9 94.6833 149.933 95.55 152.1" stroke="#0F1C3C" stroke-width="2.6" stroke-linecap="round"/>
<path d="M38.48 120.933C37.6361 112.467 42.38 78.0328 41.08 82.2578C39.7799 86.4828 35.555 103.058 35.555 103.058C34.58 106.633 32.63 112.483 33.28 122.558C33.9362 132.73 37.3966 140.216 38.805 142.708C40.6466 146.174 46.67 154.668 56.03 160.908C65.39 167.148 74.23 168.491 77.48 168.383H137.605C131.755 168.383 104.13 167.733 98.28 167.083C91.1664 166.292 70.005 163.833 59.605 157.008C55.7523 154.479 46.0524 145.947 43.03 138.808C42.0668 136.533 39.3238 129.399 38.48 120.933Z" fill="#627EA2" stroke="#627EA1" stroke-width="0.065"/>
<path d="M52.7055 139.721C54.0215 138.691 55.564 136.931 56.834 134.688C58.0166 132.599 58.1079 129.95 58.1173 129.35" stroke="#627EA1" stroke-width="4.55" stroke-linecap="round"/>
<path d="M64.2832 66.2401C67.5614 60.6715 71.9828 56.8436 77.2804 56.6792C81.8916 56.5362 87.5606 57.9383 90.8398 61.1903" stroke="#0F1C3C" stroke-width="3.25" stroke-linecap="round" stroke-linejoin="round"/>
</svg>
