<svg width="163" height="130" viewBox="0 0 163 130" fill="none" xmlns="http://www.w3.org/2000/svg">
<path d="M126.805 22.3368C131.395 20.7686 136.168 24.1714 136.183 29.0219L136.257 53.7436C136.274 59.5144 129.755 62.8852 125.056 59.5354L101.588 42.8062C96.8891 39.4564 97.9498 32.1949 103.411 30.3292L126.805 22.3368Z" fill="#9CAAC1" stroke="black" stroke-width="0.170768"/>
<path d="M25.4166 33.8854C24.8296 29.0705 29.1443 25.1021 33.8934 26.0891L58.098 31.1194C63.7481 32.2936 65.7009 39.3676 61.4534 43.2741L40.2407 62.7839C35.9932 66.6904 29.107 64.1539 28.4085 58.4254L25.4166 33.8854Z" fill="#99ABC3" stroke="black" stroke-width="0.170768"/>
<path d="M36.7752 40.8588C36.4174 39.4577 37.7106 38.1948 39.1028 38.5855L47.0765 40.8234C48.4688 41.2141 48.9159 42.9655 47.8814 43.9758L41.9565 49.7623C40.922 50.7726 39.1817 50.2842 38.824 48.8831L36.7752 40.8588Z" fill="#0F1C3C"/>
<path d="M116.186 39.5399C115.02 38.685 115.216 36.8882 116.54 36.3056L124.12 32.969C125.443 32.3864 126.901 33.455 126.744 34.8924L125.844 43.1251C125.686 44.5626 124.032 45.2908 122.866 44.436L116.186 39.5399Z" fill="#152056"/>
<path d="M26.6308 82.9417L32.1193 60.9127C36.2897 44.174 51.3234 32.4264 68.5738 32.4264H97.8195C115.256 32.4264 130.4 44.423 134.391 61.3961L139.571 83.4251C145.115 107.006 127.223 129.593 102.999 129.593H63.0853C38.6565 129.593 20.725 106.646 26.6308 82.9417Z" fill="#9EB0C6" stroke="black" stroke-width="0.170768"/>
<circle cx="108.078" cy="68.9724" r="16.0539" fill="white"/>
<circle cx="63.5075" cy="68.9724" r="16.0539" fill="white"/>
<path d="M88.4515 78.4291C93.6592 78.2262 96.8333 84.0891 93.8165 88.3389L90.1149 93.5535C87.4037 97.3727 81.6166 96.9869 79.4364 92.8415L76.8234 87.8729C74.674 83.7859 77.5226 78.8549 82.1368 78.6751L88.4515 78.4291Z" fill="#152056"/>
<ellipse cx="114.054" cy="64.7972" rx="9.15762" ry="9.01887" fill="black"/>
<ellipse cx="69.9309" cy="64.7972" rx="9.15762" ry="9.01887" fill="black"/>
<path d="M49.4487 50.954C51.9704 46.6705 55.3714 43.7259 59.4465 43.5995C62.9936 43.4895 67.3544 44.568 69.8768 47.0696" stroke="#0F1C3C" stroke-width="2.5" stroke-linecap="round" stroke-linejoin="round"/>
<path d="M119.428 49.0138C116.906 44.7303 113.505 41.7857 109.43 41.6593C105.883 41.5493 101.522 42.6279 99 45.1294" stroke="#0F1C3C" stroke-width="2.5" stroke-linecap="round" stroke-linejoin="round"/>
<ellipse cx="85.25" cy="113.25" rx="10.75" ry="13.75" fill="#152056"/>
<path d="M81.9999 113.5C81.4999 113.25 78.4999 111 74.7499 111.5C74.4999 112.75 74.75 117 75.25 118.5C76.75 122.25 80 126.75 85 127C91.25 127 95.0405 120.507 95.5 117.75C95.75 116.25 95.9999 116.25 95.7499 113.25C94.5832 113.417 90.2499 112.25 85.9999 116.5C84.7499 115.5 82.9999 114.25 81.9999 113.5Z" fill="#D069A9" stroke="black" stroke-width="0.5" stroke-linecap="round" stroke-linejoin="round"/>
<path d="M86 116.5C87.6 117.9 88.5 119.417 88.75 120" stroke="black" stroke-width="0.5"/>
<path d="M29.6 93.0252C28.9509 86.513 32.6 60.0252 31.6 63.2752C30.5999 66.5253 27.3499 79.2753 27.3499 79.2753C26.5999 82.0253 25.1 86.5252 25.6 94.2752C26.1048 102.1 28.7666 107.859 29.85 109.775C31.2666 112.442 35.9 118.975 43.1 123.775C50.3 128.575 57.1 129.609 59.6 129.525H105.85C101.35 129.525 80.1 129.025 75.6 128.525C70.128 127.917 53.85 126.025 45.85 120.775C42.8864 118.83 35.4249 112.267 33.1 106.775C32.3591 105.025 30.2491 99.5374 29.6 93.0252Z" fill="#627EA2" stroke="#627EA1" stroke-width="0.05"/>
</svg>
