<svg width="556" height="443" viewBox="0 0 556 443" fill="none" xmlns="http://www.w3.org/2000/svg">
<path d="M432.737 76.2265C448.401 70.8749 464.691 82.4873 464.74 99.0403L464.992 183.406C465.05 203.1 442.805 214.603 426.768 203.171L346.682 146.081C330.645 134.649 334.265 109.869 352.901 103.502L432.737 76.2265Z" fill="#9CAAC1" stroke="black" stroke-width="0.582765"/>
<path d="M86.7372 115.637C84.7338 99.2061 99.4584 85.6635 115.665 89.0317L198.266 106.198C217.548 110.205 224.212 134.346 209.717 147.678L137.326 214.257C122.831 227.589 99.331 218.932 96.9476 199.383L86.7372 115.637Z" fill="#99ABC3" stroke="black" stroke-width="0.582765"/>
<path d="M125.5 139.435C124.279 134.654 128.692 130.344 133.443 131.677L160.654 139.314C165.405 140.648 166.931 146.625 163.401 150.072L143.182 169.82C139.651 173.267 133.712 171.601 132.491 166.819L125.5 139.435Z" fill="#0F1C3C"/>
<path d="M396.499 134.934C392.519 132.017 393.189 125.885 397.706 123.897L423.573 112.51C428.09 110.522 433.065 114.169 432.528 119.074L429.456 147.169C428.92 152.075 423.274 154.56 419.294 151.643L396.499 134.934Z" fill="#152056"/>
<path d="M90.8813 283.048L109.611 207.871C123.843 150.748 175.148 110.658 234.017 110.658H333.821C393.324 110.658 445.006 151.598 458.626 209.521L476.302 284.697C495.224 365.17 434.165 442.252 351.498 442.252H215.286C131.92 442.252 70.7269 363.941 90.8813 283.048Z" fill="#9EB0C6" stroke="black" stroke-width="0.582765"/>
<circle cx="368.829" cy="235.376" r="54.7859" fill="white"/>
<circle cx="216.727" cy="235.376" r="54.7859" fill="white"/>
<path d="M301.851 267.648C319.623 266.956 330.455 286.964 320.16 301.467L307.528 319.262C298.276 332.296 278.526 330.979 271.086 316.832L262.169 299.876C254.834 285.929 264.555 269.101 280.302 268.488L301.851 267.648Z" fill="#152056"/>
<ellipse cx="389.223" cy="221.128" rx="31.2515" ry="30.778" fill="black"/>
<ellipse cx="238.648" cy="221.128" rx="31.2515" ry="30.778" fill="black"/>
<path d="M168.749 173.886C177.355 159.268 188.961 149.219 202.868 148.788C214.973 148.412 229.854 152.093 238.463 160.63" stroke="#0F1C3C" stroke-width="8.53155" stroke-linecap="round" stroke-linejoin="round"/>
<path d="M407.563 167.265C398.957 152.647 387.351 142.598 373.444 142.167C361.339 141.791 346.458 145.472 337.849 154.009" stroke="#0F1C3C" stroke-width="8.53155" stroke-linecap="round" stroke-linejoin="round"/>
<ellipse cx="290.926" cy="386.479" rx="36.6857" ry="46.9235" fill="#152056"/>
<path d="M279.835 387.333C278.128 386.479 267.89 378.801 255.093 380.507C254.24 384.773 255.093 399.277 256.8 404.396C261.919 417.193 273.01 432.55 290.073 433.403C311.402 433.403 324.337 411.245 325.905 401.836C326.758 396.717 327.611 396.717 326.758 386.479C322.777 387.048 307.989 383.067 293.485 397.57C289.219 394.158 283.247 389.892 279.835 387.333Z" fill="#D069A9" stroke="black" stroke-width="1.70631" stroke-linecap="round" stroke-linejoin="round"/>
<path d="M293.485 397.57C298.946 402.348 302.017 407.524 302.87 409.514" stroke="black" stroke-width="1.70631"/>
<path d="M101.013 317.459C98.7982 295.236 111.251 204.843 107.839 215.934C104.426 227.025 93.3349 270.536 93.3349 270.536C90.7754 279.921 85.6566 295.277 87.3628 321.725C89.0855 348.428 98.1695 368.08 101.866 374.621C106.701 383.721 122.513 406.017 147.084 422.397C171.655 438.778 194.86 442.304 203.392 442.02H361.226C345.869 442.02 273.351 440.314 257.994 438.607C239.32 436.532 183.769 430.076 156.468 412.16C146.355 405.522 120.892 383.123 112.958 364.383C110.429 358.411 103.229 339.683 101.013 317.459Z" fill="#627EA2" stroke="#627EA1" stroke-width="0.170631"/>
</svg>
