<svg width="591" height="522" viewBox="0 0 591 522" fill="none" xmlns="http://www.w3.org/2000/svg">
<path d="M470.397 74.5812C485.723 69.3452 501.662 80.707 501.71 96.9027L501.956 179.447C502.014 198.716 480.248 209.971 464.558 198.786L386.2 142.928C370.51 131.743 374.051 107.497 392.285 101.268L470.397 74.5812Z" fill="#9CAAC1" stroke="black" stroke-width="0.570187"/>
<path d="M131.582 113.176C129.598 96.9054 144.179 83.4956 160.227 86.8308L241.045 103.627C260.138 107.595 266.737 131.499 252.384 144.7L181.555 209.842C167.202 223.043 143.932 214.472 141.572 195.114L131.582 113.176Z" fill="#99ABC3"/>
<path d="M131.582 113.176C129.598 96.9054 144.179 83.4956 160.227 86.8308L241.045 103.627C260.138 107.595 266.737 131.499 252.384 144.7L181.555 209.842C167.202 223.043 143.932 214.472 141.572 195.114L131.582 113.176Z" stroke="black"/>
<path d="M169.791 136.426C168.597 131.748 172.914 127.531 177.563 128.835L204.187 136.307C208.835 137.612 210.328 143.46 206.874 146.833L187.091 166.154C183.637 169.528 177.826 167.897 176.632 163.219L169.791 136.426Z" fill="#0F1C3C"/>
<path d="M434.941 132.022C431.047 129.168 431.703 123.168 436.122 121.223L461.431 110.082C465.85 108.136 470.718 111.704 470.193 116.504L467.187 143.993C466.662 148.792 461.138 151.224 457.244 148.37L434.941 132.022Z" fill="#152056"/>
<path d="M135.92 276.939L154.245 203.385C168.17 147.495 218.367 108.27 275.966 108.27H373.616C431.834 108.27 482.401 148.326 495.727 204.999L513.022 278.553C531.535 357.288 471.794 432.706 390.911 432.706H257.64C176.073 432.706 116.2 356.086 135.92 276.939Z" fill="#9EB0C6"/>
<g filter="url(#filter0_i_0_3595)">
<circle cx="407.868" cy="221.296" r="53.6034" fill="white"/>
</g>
<circle cx="259.049" cy="221.296" r="53.6034" fill="white"/>
<path d="M346.828 270.721C363.554 270.695 373.575 289.302 364.35 303.254L353.601 319.508C344.83 332.773 325.063 331.827 317.598 317.786L308.973 301.561C301.555 287.608 311.652 270.776 327.454 270.751L346.828 270.721Z" fill="#152056"/>
<path d="M145.499 310.524C143.332 288.78 155.516 200.338 152.177 211.19C148.838 222.041 137.986 264.613 137.986 264.613C135.482 273.795 130.474 288.821 132.143 314.697C133.829 340.824 142.717 360.052 146.334 366.451C151.064 375.355 166.535 397.17 190.575 413.197C214.616 429.224 237.321 432.674 245.668 432.396H400.095C385.07 432.396 314.117 430.726 299.092 429.057C280.821 427.027 226.469 420.709 199.757 403.18C189.862 396.686 164.949 374.77 157.186 356.434C154.712 350.591 147.667 332.268 145.499 310.524Z" fill="#627EA2" stroke="#627EA1" stroke-width="0.667793"/>
<path d="M231 278.5C217 273 200 258.5 198.5 253C208.5 251.5 231 256.9 243 262.5C258 269.5 263.5 274.5 271 281.5C262.333 282.333 242.2 282.9 231 278.5Z" fill="#9EB0C6" stroke="#9EB0C6"/>
<g filter="url(#filter1_f_0_3595)">
<path d="M226.999 261C223 259.5 218.155 258.331 216.5 258C214.692 257.639 210.268 257.539 206.445 258.078C205.41 258.224 205.465 259.522 206.486 259.743C211.799 260.896 219.52 262.935 221.5 263.5C224.647 264.4 230.221 266.108 234.584 267.897C235.253 268.172 235.831 267.696 235.437 267.089C234.246 265.25 231.223 262.585 226.999 261Z" fill="white"/>
</g>
<path d="M440.154 222C440.154 238.631 426.464 252.114 409.577 252.114C392.69 252.114 379 238.631 379 222C379 205.369 392.69 191.886 409.577 191.886C426.464 191.886 440.154 205.369 440.154 222Z" fill="black"/>
<ellipse cx="257.577" cy="222.114" rx="30.577" ry="30.1137" fill="black"/>
<path d="M212.107 170.133C220.527 155.83 231.883 145.999 245.489 145.577C257.333 145.209 271.894 148.81 280.316 157.163" stroke="#0F1C3C" stroke-width="8.34741" stroke-linecap="round" stroke-linejoin="round"/>
<path d="M446.909 165.422C437.106 152.029 424.827 143.377 411.246 144.313C399.425 145.127 385.296 150.16 377.747 159.31" stroke="#0F1C3C" stroke-width="8.34741" stroke-linecap="round" stroke-linejoin="round"/>
<path d="M285.973 337C277.318 334.529 264.103 328.63 252.443 318.1C244.611 311.027 235.564 313.434 237.275 323.848C238.029 328.439 238.943 332.993 239.974 337C244.474 354.5 252.911 367.982 271.5 387.5C281.5 398 320 417 337.5 417C359.5 417 387.473 398 395.973 389.5C404.2 381.273 420.406 361 424.974 348C428.765 337.209 431.065 328.036 432.3 318.11C432.954 312.848 423.796 309.628 419.823 313.14C405.046 326.207 384.608 336.209 378.5 338C344.609 347.937 324.5 348 285.973 337Z" fill="#152056" stroke="#152056"/>
<mask id="mask0_0_3595" style="mask-type:alpha" maskUnits="userSpaceOnUse" x="236" y="311" width="197" height="107">
<path d="M285.973 337C277.318 334.529 264.103 328.63 252.443 318.1C244.611 311.027 235.564 313.434 237.275 323.848C238.029 328.439 238.943 332.993 239.974 337C244.474 354.5 252.911 367.982 271.5 387.5C281.5 398 320 417 337.5 417C359.5 417 387.473 398 395.973 389.5C404.2 381.273 420.406 361 424.974 348C428.765 337.209 431.065 328.036 432.3 318.11C432.954 312.848 423.796 309.628 419.823 313.14C405.046 326.207 384.608 336.209 378.5 338C344.609 347.937 324.5 348 285.973 337Z" fill="#152056" stroke="#152056"/>
</mask>
<g mask="url(#mask0_0_3595)">
<path d="M439.684 341.61C440.519 342.445 451.957 354.548 459.717 354.548C469.735 354.548 473.075 349.122 479.753 340.775" stroke="#D069A9" stroke-width="16.6948" stroke-linecap="round"/>
<ellipse cx="337" cy="387.5" rx="37" ry="23.5" fill="url(#paint0_linear_0_3595)"/>
<g filter="url(#filter2_f_0_3595)">
<path d="M336 387.5C336 388.328 336.672 389 337.5 389C338.328 389 339 388.328 339 387.5H336ZM336 369C336 369.026 336 369.052 336 369.077C336 369.103 336 369.129 336 369.154C336 369.18 336 369.206 336 369.231C336 369.257 336 369.282 336 369.308C336 369.333 336 369.359 336 369.384C336 369.41 336 369.435 336 369.461C336 369.486 336 369.511 336 369.537C336 369.562 336 369.587 336 369.612C336 369.638 336 369.663 336 369.688C336 369.713 336 369.739 336 369.764C336 369.789 336 369.814 336 369.839C336 369.864 336 369.889 336 369.914C336 369.939 336 369.964 336 369.989C336 370.014 336 370.039 336 370.064C336 370.089 336 370.113 336 370.138C336 370.163 336 370.188 336 370.213C336 370.237 336 370.262 336 370.287C336 370.311 336 370.336 336 370.361C336 370.385 336 370.41 336 370.434C336 370.459 336 370.483 336 370.508C336 370.532 336 370.557 336 370.581C336 370.606 336 370.63 336 370.654C336 370.679 336 370.703 336 370.727C336 370.752 336 370.776 336 370.8C336 370.824 336 370.849 336 370.873C336 370.897 336 370.921 336 370.945C336 370.969 336 370.993 336 371.017C336 371.042 336 371.066 336 371.09C336 371.113 336 371.137 336 371.161C336 371.185 336 371.209 336 371.233C336 371.257 336 371.281 336 371.304C336 371.328 336 371.352 336 371.376C336 371.399 336 371.423 336 371.447C336 371.47 336 371.494 336 371.518C336 371.541 336 371.565 336 371.588C336 371.612 336 371.635 336 371.659C336 371.682 336 371.706 336 371.729C336 371.753 336 371.776 336 371.799C336 371.823 336 371.846 336 371.869C336 371.893 336 371.916 336 371.939C336 371.962 336 371.985 336 372.009C336 372.032 336 372.055 336 372.078C336 372.101 336 372.124 336 372.147C336 372.17 336 372.193 336 372.216C336 372.239 336 372.262 336 372.285C336 372.308 336 372.331 336 372.354C336 372.377 336 372.399 336 372.422C336 372.445 336 372.468 336 372.49C336 372.513 336 372.536 336 372.558C336 372.581 336 372.604 336 372.626C336 372.649 336 372.672 336 372.694C336 372.717 336 372.739 336 372.762C336 372.784 336 372.807 336 372.829C336 372.851 336 372.874 336 372.896C336 372.918 336 372.941 336 372.963C336 372.985 336 373.008 336 373.03C336 373.052 336 373.074 336 373.096C336 373.119 336 373.141 336 373.163C336 373.185 336 373.207 336 373.229C336 373.251 336 373.273 336 373.295C336 373.317 336 373.339 336 373.361C336 373.383 336 373.405 336 373.427C336 373.448 336 373.47 336 373.492C336 373.514 336 373.536 336 373.557C336 373.579 336 373.601 336 373.623C336 373.644 336 373.666 336 373.687C336 373.709 336 373.731 336 373.752C336 373.774 336 373.795 336 373.817C336 373.838 336 373.86 336 373.881C336 373.903 336 373.924 336 373.945C336 373.967 336 373.988 336 374.009C336 374.031 336 374.052 336 374.073C336 374.095 336 374.116 336 374.137C336 374.158 336 374.179 336 374.2C336 374.222 336 374.243 336 374.264C336 374.285 336 374.306 336 374.327C336 374.348 336 374.369 336 374.39C336 374.411 336 374.432 336 374.453C336 374.474 336 374.494 336 374.515C336 374.536 336 374.557 336 374.578C336 374.598 336 374.619 336 374.64C336 374.661 336 374.681 336 374.702C336 374.723 336 374.743 336 374.764C336 374.784 336 374.805 336 374.825C336 374.846 336 374.866 336 374.887C336 374.907 336 374.928 336 374.948C336 374.969 336 374.989 336 375.009C336 375.03 336 375.05 336 375.07C336 375.091 336 375.111 336 375.131C336 375.151 336 375.172 336 375.192C336 375.212 336 375.232 336 375.252C336 375.272 336 375.292 336 375.313C336 375.333 336 375.353 336 375.373C336 375.393 336 375.413 336 375.433C336 375.452 336 375.472 336 375.492C336 375.512 336 375.532 336 375.552C336 375.572 336 375.591 336 375.611C336 375.631 336 375.651 336 375.67C336 375.69 336 375.71 336 375.729C336 375.749 336 375.769 336 375.788C336 375.808 336 375.827 336 375.847C336 375.866 336 375.886 336 375.905C336 375.925 336 375.944 336 375.964C336 375.983 336 376.003 336 376.022C336 376.041 336 376.061 336 376.08C336 376.099 336 376.118 336 376.138C336 376.157 336 376.176 336 376.195C336 376.215 336 376.234 336 376.253C336 376.272 336 376.291 336 376.31C336 376.329 336 376.348 336 376.367C336 376.386 336 376.405 336 376.424C336 376.443 336 376.462 336 376.481C336 376.5 336 376.519 336 376.537C336 376.556 336 376.575 336 376.594C336 376.613 336 376.631 336 376.65C336 376.669 336 376.688 336 376.706C336 376.725 336 376.743 336 376.762C336 376.781 336 376.799 336 376.818C336 376.836 336 376.855 336 376.873C336 376.892 336 376.91 336 376.929C336 376.947 336 376.966 336 376.984C336 377.002 336 377.021 336 377.039C336 377.057 336 377.076 336 377.094C336 377.112 336 377.13 336 377.149C336 377.167 336 377.185 336 377.203C336 377.221 336 377.239 336 377.257C336 377.276 336 377.294 336 377.312C336 377.33 336 377.348 336 377.366C336 377.384 336 377.402 336 377.419C336 377.437 336 377.455 336 377.473C336 377.491 336 377.509 336 377.527C336 377.544 336 377.562 336 377.58C336 377.598 336 377.615 336 377.633C336 377.651 336 377.669 336 377.686C336 377.704 336 377.721 336 377.739C336 377.757 336 377.774 336 377.792C336 377.809 336 377.827 336 377.844C336 377.862 336 377.879 336 377.896C336 377.914 336 377.931 336 377.949C336 377.966 336 377.983 336 378.001C336 378.018 336 378.035 336 378.052C336 378.07 336 378.087 336 378.104C336 378.121 336 378.138 336 378.156C336 378.173 336 378.19 336 378.207C336 378.224 336 378.241 336 378.258C336 378.275 336 378.292 336 378.309C336 378.326 336 378.343 336 378.36C336 378.377 336 378.394 336 378.411C336 378.427 336 378.444 336 378.461C336 378.478 336 378.495 336 378.511C336 378.528 336 378.545 336 378.562C336 378.578 336 378.595 336 378.612C336 378.628 336 378.645 336 378.661C336 378.678 336 378.695 336 378.711C336 378.728 336 378.744 336 378.761C336 378.777 336 378.793 336 378.81C336 378.826 336 378.843 336 378.859C336 378.875 336 378.892 336 378.908C336 378.924 336 378.941 336 378.957C336 378.973 336 378.989 336 379.006C336 379.022 336 379.038 336 379.054C336 379.07 336 379.086 336 379.102C336 379.119 336 379.135 336 379.151C336 379.167 336 379.183 336 379.199C336 379.215 336 379.231 336 379.247C336 379.263 336 379.278 336 379.294C336 379.31 336 379.326 336 379.342C336 379.358 336 379.373 336 379.389C336 379.405 336 379.421 336 379.436C336 379.452 336 379.468 336 379.484C336 379.499 336 379.515 336 379.53C336 379.546 336 379.562 336 379.577C336 379.593 336 379.608 336 379.624C336 379.639 336 379.655 336 379.67C336 379.686 336 379.701 336 379.716C336 379.732 336 379.747 336 379.763C336 379.778 336 379.793 336 379.808C336 379.824 336 379.839 336 379.854C336 379.869 336 379.885 336 379.9C336 379.915 336 379.93 336 379.945C336 379.96 336 379.976 336 379.991C336 380.006 336 380.021 336 380.036C336 380.051 336 380.066 336 380.081C336 380.096 336 380.111 336 380.126C336 380.141 336 380.155 336 380.17C336 380.185 336 380.2 336 380.215C336 380.23 336 380.244 336 380.259C336 380.274 336 380.289 336 380.303C336 380.318 336 380.333 336 380.347C336 380.362 336 380.377 336 380.391C336 380.406 336 380.42 336 380.435C336 380.449 336 380.464 336 380.479C336 380.493 336 380.507 336 380.522C336 380.536 336 380.551 336 380.565C336 380.58 336 380.594 336 380.608C336 380.623 336 380.637 336 380.651C336 380.666 336 380.68 336 380.694C336 380.708 336 380.722 336 380.737C336 380.751 336 380.765 336 380.779C336 380.793 336 380.807 336 380.821C336 380.836 336 380.85 336 380.864C336 380.878 336 380.892 336 380.906C336 380.92 336 380.934 336 380.947C336 380.961 336 380.975 336 380.989C336 381.003 336 381.017 336 381.031C336 381.045 336 381.058 336 381.072C336 381.086 336 381.1 336 381.113C336 381.127 336 381.141 336 381.154C336 381.168 336 381.182 336 381.195C336 381.209 336 381.223 336 381.236C336 381.25 336 381.263 336 381.277C336 381.29 336 381.304 336 381.317C336 381.331 336 381.344 336 381.358C336 381.371 336 381.384 336 381.398C336 381.411 336 381.424 336 381.438C336 381.451 336 381.464 336 381.478C336 381.491 336 381.504 336 381.517C336 381.531 336 381.544 336 381.557C336 381.57 336 381.583 336 381.596C336 381.609 336 381.622 336 381.636C336 381.649 336 381.662 336 381.675C336 381.688 336 381.701 336 381.714C336 381.727 336 381.739 336 381.752C336 381.765 336 381.778 336 381.791C336 381.804 336 381.817 336 381.83C336 381.842 336 381.855 336 381.868C336 381.881 336 381.893 336 381.906C336 381.919 336 381.932 336 381.944C336 381.957 336 381.969 336 381.982C336 381.995 336 382.007 336 382.02C336 382.032 336 382.045 336 382.057C336 382.07 336 382.082 336 382.095C336 382.107 336 382.12 336 382.132C336 382.145 336 382.157 336 382.169C336 382.182 336 382.194 336 382.206C336 382.219 336 382.231 336 382.243C336 382.256 336 382.268 336 382.28C336 382.292 336 382.304 336 382.317C336 382.329 336 382.341 336 382.353C336 382.365 336 382.377 336 382.389C336 382.401 336 382.413 336 382.425C336 382.437 336 382.449 336 382.461C336 382.473 336 382.485 336 382.497C336 382.509 336 382.521 336 382.533C336 382.545 336 382.557 336 382.569C336 382.58 336 382.592 336 382.604C336 382.616 336 382.627 336 382.639C336 382.651 336 382.663 336 382.674C336 382.686 336 382.698 336 382.709C336 382.721 336 382.733 336 382.744C336 382.756 336 382.767 336 382.779C336 382.79 336 382.802 336 382.813C336 382.825 336 382.836 336 382.848C336 382.859 336 382.871 336 382.882C336 382.893 336 382.905 336 382.916C336 382.927 336 382.939 336 382.95C336 382.961 336 382.973 336 382.984C336 382.995 336 383.006 336 383.017C336 383.029 336 383.04 336 383.051C336 383.062 336 383.073 336 383.084C336 383.096 336 383.107 336 383.118C336 383.129 336 383.14 336 383.151C336 383.162 336 383.173 336 383.184C336 383.195 336 383.206 336 383.217C336 383.227 336 383.238 336 383.249C336 383.26 336 383.271 336 383.282C336 383.293 336 383.303 336 383.314C336 383.325 336 383.336 336 383.346C336 383.357 336 383.368 336 383.378C336 383.389 336 383.4 336 383.41C336 383.421 336 383.432 336 383.442C336 383.453 336 383.463 336 383.474C336 383.485 336 383.495 336 383.506C336 383.516 336 383.526 336 383.537C336 383.547 336 383.558 336 383.568C336 383.579 336 383.589 336 383.599C336 383.61 336 383.62 336 383.63C336 383.641 336 383.651 336 383.661C336 383.671 336 383.682 336 383.692C336 383.702 336 383.712 336 383.722C336 383.733 336 383.743 336 383.753C336 383.763 336 383.773 336 383.783C336 383.793 336 383.803 336 383.813C336 383.823 336 383.833 336 383.843C336 383.853 336 383.863 336 383.873C336 383.883 336 383.893 336 383.903C336 383.913 336 383.923 336 383.933C336 383.942 336 383.952 336 383.962C336 383.972 336 383.982 336 383.991C336 384.001 336 384.011 336 384.021C336 384.03 336 384.04 336 384.05C336 384.059 336 384.069 336 384.079C336 384.088 336 384.098 336 384.107C336 384.117 336 384.126 336 384.136C336 384.146 336 384.155 336 384.165C336 384.174 336 384.183 336 384.193C336 384.202 336 384.212 336 384.221C336 384.231 336 384.24 336 384.249C336 384.259 336 384.268 336 384.277C336 384.287 336 384.296 336 384.305C336 384.314 336 384.324 336 384.333C336 384.342 336 384.351 336 384.36C336 384.37 336 384.379 336 384.388C336 384.397 336 384.406 336 384.415C336 384.424 336 384.433 336 384.442C336 384.451 336 384.46 336 384.469C336 384.478 336 384.487 336 384.496C336 384.505 336 384.514 336 384.523C336 384.532 336 384.541 336 384.55C336 384.559 336 384.567 336 384.576C336 384.585 336 384.594 336 384.603C336 384.611 336 384.62 336 384.629C336 384.637 336 384.646 336 384.655C336 384.664 336 384.672 336 384.681C336 384.69 336 384.698 336 384.707C336 384.715 336 384.724 336 384.732C336 384.741 336 384.75 336 384.758C336 384.767 336 384.775 336 384.783C336 384.792 336 384.8 336 384.809C336 384.817 336 384.826 336 384.834C336 384.842 336 384.851 336 384.859C336 384.867 336 384.876 336 384.884C336 384.892 336 384.901 336 384.909C336 384.917 336 384.925 336 384.933C336 384.942 336 384.95 336 384.958C336 384.966 336 384.974 336 384.982C336 384.991 336 384.999 336 385.007C336 385.015 336 385.023 336 385.031C336 385.039 336 385.047 336 385.055C336 385.063 336 385.071 336 385.079C336 385.087 336 385.095 336 385.103C336 385.11 336 385.118 336 385.126C336 385.134 336 385.142 336 385.15C336 385.158 336 385.165 336 385.173C336 385.181 336 385.189 336 385.196C336 385.204 336 385.212 336 385.22C336 385.227 336 385.235 336 385.243C336 385.25 336 385.258 336 385.265C336 385.273 336 385.281 336 385.288C336 385.296 336 385.303 336 385.311C336 385.318 336 385.326 336 385.333C336 385.341 336 385.348 336 385.356C336 385.363 336 385.37 336 385.378C336 385.385 336 385.393 336 385.4C336 385.407 336 385.415 336 385.422C336 385.429 336 385.437 336 385.444C336 385.451 336 385.458 336 385.466C336 385.473 336 385.48 336 385.487C336 385.494 336 385.502 336 385.509C336 385.516 336 385.523 336 385.53C336 385.537 336 385.544 336 385.551C336 385.558 336 385.565 336 385.573C336 385.58 336 385.587 336 385.594C336 385.6 336 385.607 336 385.614C336 385.621 336 385.628 336 385.635C336 385.642 336 385.649 336 385.656C336 385.663 336 385.669 336 385.676C336 385.683 336 385.69 336 385.697C336 385.703 336 385.71 336 385.717C336 385.724 336 385.73 336 385.737C336 385.744 336 385.75 336 385.757C336 385.764 336 385.77 336 385.777C336 385.784 336 385.79 336 385.797C336 385.803 336 385.81 336 385.816C336 385.823 336 385.829 336 385.836C336 385.842 336 385.849 336 385.855C336 385.862 336 385.868 336 385.875C336 385.881 336 385.887 336 385.894C336 385.9 336 385.907 336 385.913C336 385.919 336 385.926 336 385.932C336 385.938 336 385.944 336 385.951C336 385.957 336 385.963 336 385.969C336 385.976 336 385.982 336 385.988C336 385.994 336 386 336 386.006C336 386.012 336 386.019 336 386.025C336 386.031 336 386.037 336 386.043C336 386.049 336 386.055 336 386.061C336 386.067 336 386.073 336 386.079C336 386.085 336 386.091 336 386.097C336 386.103 336 386.109 336 386.115C336 386.12 336 386.126 336 386.132C336 386.138 336 386.144 336 386.15C336 386.156 336 386.161 336 386.167C336 386.173 336 386.179 336 386.184C336 386.19 336 386.196 336 386.202C336 386.207 336 386.213 336 386.219C336 386.224 336 386.23 336 386.235C336 386.241 336 386.247 336 386.252C336 386.258 336 386.263 336 386.269C336 386.275 336 386.28 336 386.286C336 386.291 336 386.297 336 386.302C336 386.307 336 386.313 336 386.318C336 386.324 336 386.329 336 386.335C336 386.34 336 386.345 336 386.351C336 386.356 336 386.361 336 386.367C336 386.372 336 386.377 336 386.383C336 386.388 336 386.393 336 386.398C336 386.404 336 386.409 336 386.414C336 386.419 336 386.424 336 386.429C336 386.435 336 386.44 336 386.445C336 386.45 336 386.455 336 386.46C336 386.465 336 386.47 336 386.475C336 386.48 336 386.485 336 386.49C336 386.496 336 386.5 336 386.505C336 386.51 336 386.515 336 386.52C336 386.525 336 386.53 336 386.535C336 386.54 336 386.545 336 386.55C336 386.555 336 386.559 336 386.564C336 386.569 336 386.574 336 386.579C336 386.583 336 386.588 336 386.593C336 386.598 336 386.602 336 386.607C336 386.612 336 386.616 336 386.621C336 386.626 336 386.63 336 386.635C336 386.64 336 386.644 336 386.649C336 386.654 336 386.658 336 386.663C336 386.667 336 386.672 336 386.676C336 386.681 336 386.685 336 386.69C336 386.694 336 386.699 336 386.703C336 386.708 336 386.712 336 386.717C336 386.721 336 386.725 336 386.73C336 386.734 336 386.738 336 386.743C336 386.747 336 386.751 336 386.756C336 386.76 336 386.764 336 386.769C336 386.773 336 386.777 336 386.781C336 386.786 336 386.79 336 386.794C336 386.798 336 386.802 336 386.807C336 386.811 336 386.815 336 386.819C336 386.823 336 386.827 336 386.831C336 386.835 336 386.839 336 386.843C336 386.848 336 386.852 336 386.856C336 386.86 336 386.864 336 386.868C336 386.872 336 386.875 336 386.879C336 386.883 336 386.887 336 386.891C336 386.895 336 386.899 336 386.903C336 386.907 336 386.911 336 386.914C336 386.918 336 386.922 336 386.926C336 386.93 336 386.933 336 386.937C336 386.941 336 386.945 336 386.948C336 386.952 336 386.956 336 386.96C336 386.963 336 386.967 336 386.971C336 386.974 336 386.978 336 386.982C336 386.985 336 386.989 336 386.992C336 386.996 336 387 336 387.003C336 387.007 336 387.01 336 387.014C336 387.017 336 387.021 336 387.024C336 387.028 336 387.031 336 387.035C336 387.038 336 387.041 336 387.045C336 387.048 336 387.052 336 387.055C336 387.058 336 387.062 336 387.065C336 387.069 336 387.072 336 387.075C336 387.078 336 387.082 336 387.085C336 387.088 336 387.092 336 387.095C336 387.098 336 387.101 336 387.104C336 387.108 336 387.111 336 387.114C336 387.117 336 387.12 336 387.124C336 387.127 336 387.13 336 387.133C336 387.136 336 387.139 336 387.142C336 387.145 336 387.148 336 387.151C336 387.154 336 387.157 336 387.16C336 387.163 336 387.166 336 387.169C336 387.172 336 387.175 336 387.178C336 387.181 336 387.184 336 387.187C336 387.19 336 387.193 336 387.196C336 387.198 336 387.201 336 387.204C336 387.207 336 387.21 336 387.213C336 387.215 336 387.218 336 387.221C336 387.224 336 387.226 336 387.229C336 387.232 336 387.235 336 387.237C336 387.24 336 387.243 336 387.245C336 387.248 336 387.251 336 387.253C336 387.256 336 387.259 336 387.261C336 387.264 336 387.266 336 387.269C336 387.271 336 387.274 336 387.277C336 387.279 336 387.282 336 387.284C336 387.287 336 387.289 336 387.292C336 387.294 336 387.297 336 387.299C336 387.301 336 387.304 336 387.306C336 387.309 336 387.311 336 387.313C336 387.316 336 387.318 336 387.32C336 387.323 336 387.325 336 387.327C336 387.33 336 387.332 336 387.334C336 387.337 336 387.339 336 387.341C336 387.343 336 387.345 336 387.348C336 387.35 336 387.352 336 387.354C336 387.356 336 387.359 336 387.361C336 387.363 336 387.365 336 387.367C336 387.369 336 387.371 336 387.373C336 387.376 336 387.378 336 387.38C336 387.382 336 387.384 336 387.386C336 387.388 336 387.39 336 387.392C336 387.394 336 387.396 336 387.398C336 387.4 336 387.402 336 387.403C336 387.405 336 387.407 336 387.409C336 387.411 336 387.413 336 387.415C336 387.417 336 387.418 336 387.42C336 387.422 336 387.424 336 387.426C336 387.428 336 387.429 336 387.431C336 387.433 336 387.435 336 387.436C336 387.438 336 387.44 336 387.441C336 387.443 336 387.445 336 387.447C336 387.448 336 387.45 336 387.451C336 387.453 336 387.455 336 387.456C336 387.458 336 387.46 336 387.461C336 387.463 336 387.464 336 387.466C336 387.467 336 387.469 336 387.47C336 387.472 336 387.473 336 387.475C336 387.476 336 387.478 336 387.479C336 387.481 336 387.482 336 387.484C336 387.485 336 387.486 336 387.488C336 387.489 336 387.491 336 387.492C336 387.493 336 387.495 336 387.496C336 387.497 336 387.499 336 387.5H339C339 387.499 339 387.497 339 387.496C339 387.495 339 387.493 339 387.492C339 387.491 339 387.489 339 387.488C339 387.486 339 387.485 339 387.484C339 387.482 339 387.481 339 387.479C339 387.478 339 387.476 339 387.475C339 387.473 339 387.472 339 387.47C339 387.469 339 387.467 339 387.466C339 387.464 339 387.463 339 387.461C339 387.46 339 387.458 339 387.456C339 387.455 339 387.453 339 387.451C339 387.45 339 387.448 339 387.447C339 387.445 339 387.443 339 387.441C339 387.44 339 387.438 339 387.436C339 387.435 339 387.433 339 387.431C339 387.429 339 387.428 339 387.426C339 387.424 339 387.422 339 387.42C339 387.418 339 387.417 339 387.415C339 387.413 339 387.411 339 387.409C339 387.407 339 387.405 339 387.403C339 387.402 339 387.4 339 387.398C339 387.396 339 387.394 339 387.392C339 387.39 339 387.388 339 387.386C339 387.384 339 387.382 339 387.38C339 387.378 339 387.376 339 387.373C339 387.371 339 387.369 339 387.367C339 387.365 339 387.363 339 387.361C339 387.359 339 387.356 339 387.354C339 387.352 339 387.35 339 387.348C339 387.345 339 387.343 339 387.341C339 387.339 339 387.337 339 387.334C339 387.332 339 387.33 339 387.327C339 387.325 339 387.323 339 387.32C339 387.318 339 387.316 339 387.313C339 387.311 339 387.309 339 387.306C339 387.304 339 387.301 339 387.299C339 387.297 339 387.294 339 387.292C339 387.289 339 387.287 339 387.284C339 387.282 339 387.279 339 387.277C339 387.274 339 387.271 339 387.269C339 387.266 339 387.264 339 387.261C339 387.259 339 387.256 339 387.253C339 387.251 339 387.248 339 387.245C339 387.243 339 387.24 339 387.237C339 387.235 339 387.232 339 387.229C339 387.226 339 387.224 339 387.221C339 387.218 339 387.215 339 387.213C339 387.21 339 387.207 339 387.204C339 387.201 339 387.198 339 387.196C339 387.193 339 387.19 339 387.187C339 387.184 339 387.181 339 387.178C339 387.175 339 387.172 339 387.169C339 387.166 339 387.163 339 387.16C339 387.157 339 387.154 339 387.151C339 387.148 339 387.145 339 387.142C339 387.139 339 387.136 339 387.133C339 387.13 339 387.127 339 387.124C339 387.12 339 387.117 339 387.114C339 387.111 339 387.108 339 387.104C339 387.101 339 387.098 339 387.095C339 387.092 339 387.088 339 387.085C339 387.082 339 387.078 339 387.075C339 387.072 339 387.069 339 387.065C339 387.062 339 387.058 339 387.055C339 387.052 339 387.048 339 387.045C339 387.041 339 387.038 339 387.035C339 387.031 339 387.028 339 387.024C339 387.021 339 387.017 339 387.014C339 387.01 339 387.007 339 387.003C339 387 339 386.996 339 386.992C339 386.989 339 386.985 339 386.982C339 386.978 339 386.974 339 386.971C339 386.967 339 386.963 339 386.96C339 386.956 339 386.952 339 386.948C339 386.945 339 386.941 339 386.937C339 386.933 339 386.93 339 386.926C339 386.922 339 386.918 339 386.914C339 386.911 339 386.907 339 386.903C339 386.899 339 386.895 339 386.891C339 386.887 339 386.883 339 386.879C339 386.875 339 386.872 339 386.868C339 386.864 339 386.86 339 386.856C339 386.852 339 386.848 339 386.843C339 386.839 339 386.835 339 386.831C339 386.827 339 386.823 339 386.819C339 386.815 339 386.811 339 386.807C339 386.802 339 386.798 339 386.794C339 386.79 339 386.786 339 386.781C339 386.777 339 386.773 339 386.769C339 386.764 339 386.76 339 386.756C339 386.751 339 386.747 339 386.743C339 386.738 339 386.734 339 386.73C339 386.725 339 386.721 339 386.717C339 386.712 339 386.708 339 386.703C339 386.699 339 386.694 339 386.69C339 386.685 339 386.681 339 386.676C339 386.672 339 386.667 339 386.663C339 386.658 339 386.654 339 386.649C339 386.644 339 386.64 339 386.635C339 386.63 339 386.626 339 386.621C339 386.616 339 386.612 339 386.607C339 386.602 339 386.598 339 386.593C339 386.588 339 386.583 339 386.579C339 386.574 339 386.569 339 386.564C339 386.559 339 386.555 339 386.55C339 386.545 339 386.54 339 386.535C339 386.53 339 386.525 339 386.52C339 386.515 339 386.51 339 386.505C339 386.5 339 386.496 339 386.49C339 386.485 339 386.48 339 386.475C339 386.47 339 386.465 339 386.46C339 386.455 339 386.45 339 386.445C339 386.44 339 386.435 339 386.429C339 386.424 339 386.419 339 386.414C339 386.409 339 386.404 339 386.398C339 386.393 339 386.388 339 386.383C339 386.377 339 386.372 339 386.367C339 386.361 339 386.356 339 386.351C339 386.345 339 386.34 339 386.335C339 386.329 339 386.324 339 386.318C339 386.313 339 386.307 339 386.302C339 386.297 339 386.291 339 386.286C339 386.28 339 386.275 339 386.269C339 386.263 339 386.258 339 386.252C339 386.247 339 386.241 339 386.235C339 386.23 339 386.224 339 386.219C339 386.213 339 386.207 339 386.202C339 386.196 339 386.19 339 386.184C339 386.179 339 386.173 339 386.167C339 386.161 339 386.156 339 386.15C339 386.144 339 386.138 339 386.132C339 386.126 339 386.12 339 386.115C339 386.109 339 386.103 339 386.097C339 386.091 339 386.085 339 386.079C339 386.073 339 386.067 339 386.061C339 386.055 339 386.049 339 386.043C339 386.037 339 386.031 339 386.025C339 386.019 339 386.012 339 386.006C339 386 339 385.994 339 385.988C339 385.982 339 385.976 339 385.969C339 385.963 339 385.957 339 385.951C339 385.944 339 385.938 339 385.932C339 385.926 339 385.919 339 385.913C339 385.907 339 385.9 339 385.894C339 385.887 339 385.881 339 385.875C339 385.868 339 385.862 339 385.855C339 385.849 339 385.842 339 385.836C339 385.829 339 385.823 339 385.816C339 385.81 339 385.803 339 385.797C339 385.79 339 385.784 339 385.777C339 385.77 339 385.764 339 385.757C339 385.75 339 385.744 339 385.737C339 385.73 339 385.724 339 385.717C339 385.71 339 385.703 339 385.697C339 385.69 339 385.683 339 385.676C339 385.669 339 385.663 339 385.656C339 385.649 339 385.642 339 385.635C339 385.628 339 385.621 339 385.614C339 385.607 339 385.6 339 385.594C339 385.587 339 385.58 339 385.573C339 385.565 339 385.558 339 385.551C339 385.544 339 385.537 339 385.53C339 385.523 339 385.516 339 385.509C339 385.502 339 385.494 339 385.487C339 385.48 339 385.473 339 385.466C339 385.458 339 385.451 339 385.444C339 385.437 339 385.429 339 385.422C339 385.415 339 385.407 339 385.4C339 385.393 339 385.385 339 385.378C339 385.37 339 385.363 339 385.356C339 385.348 339 385.341 339 385.333C339 385.326 339 385.318 339 385.311C339 385.303 339 385.296 339 385.288C339 385.281 339 385.273 339 385.265C339 385.258 339 385.25 339 385.243C339 385.235 339 385.227 339 385.22C339 385.212 339 385.204 339 385.196C339 385.189 339 385.181 339 385.173C339 385.165 339 385.158 339 385.15C339 385.142 339 385.134 339 385.126C339 385.118 339 385.11 339 385.103C339 385.095 339 385.087 339 385.079C339 385.071 339 385.063 339 385.055C339 385.047 339 385.039 339 385.031C339 385.023 339 385.015 339 385.007C339 384.999 339 384.991 339 384.982C339 384.974 339 384.966 339 384.958C339 384.95 339 384.942 339 384.933C339 384.925 339 384.917 339 384.909C339 384.901 339 384.892 339 384.884C339 384.876 339 384.867 339 384.859C339 384.851 339 384.842 339 384.834C339 384.826 339 384.817 339 384.809C339 384.8 339 384.792 339 384.783C339 384.775 339 384.767 339 384.758C339 384.75 339 384.741 339 384.732C339 384.724 339 384.715 339 384.707C339 384.698 339 384.69 339 384.681C339 384.672 339 384.664 339 384.655C339 384.646 339 384.637 339 384.629C339 384.62 339 384.611 339 384.603C339 384.594 339 384.585 339 384.576C339 384.567 339 384.559 339 384.55C339 384.541 339 384.532 339 384.523C339 384.514 339 384.505 339 384.496C339 384.487 339 384.478 339 384.469C339 384.46 339 384.451 339 384.442C339 384.433 339 384.424 339 384.415C339 384.406 339 384.397 339 384.388C339 384.379 339 384.37 339 384.36C339 384.351 339 384.342 339 384.333C339 384.324 339 384.314 339 384.305C339 384.296 339 384.287 339 384.277C339 384.268 339 384.259 339 384.249C339 384.24 339 384.231 339 384.221C339 384.212 339 384.202 339 384.193C339 384.183 339 384.174 339 384.165C339 384.155 339 384.146 339 384.136C339 384.126 339 384.117 339 384.107C339 384.098 339 384.088 339 384.079C339 384.069 339 384.059 339 384.05C339 384.04 339 384.03 339 384.021C339 384.011 339 384.001 339 383.991C339 383.982 339 383.972 339 383.962C339 383.952 339 383.942 339 383.933C339 383.923 339 383.913 339 383.903C339 383.893 339 383.883 339 383.873C339 383.863 339 383.853 339 383.843C339 383.833 339 383.823 339 383.813C339 383.803 339 383.793 339 383.783C339 383.773 339 383.763 339 383.753C339 383.743 339 383.733 339 383.722C339 383.712 339 383.702 339 383.692C339 383.682 339 383.671 339 383.661C339 383.651 339 383.641 339 383.63C339 383.62 339 383.61 339 383.599C339 383.589 339 383.579 339 383.568C339 383.558 339 383.547 339 383.537C339 383.526 339 383.516 339 383.506C339 383.495 339 383.485 339 383.474C339 383.463 339 383.453 339 383.442C339 383.432 339 383.421 339 383.41C339 383.4 339 383.389 339 383.378C339 383.368 339 383.357 339 383.346C339 383.336 339 383.325 339 383.314C339 383.303 339 383.293 339 383.282C339 383.271 339 383.26 339 383.249C339 383.238 339 383.227 339 383.217C339 383.206 339 383.195 339 383.184C339 383.173 339 383.162 339 383.151C339 383.14 339 383.129 339 383.118C339 383.107 339 383.096 339 383.084C339 383.073 339 383.062 339 383.051C339 383.04 339 383.029 339 383.017C339 383.006 339 382.995 339 382.984C339 382.973 339 382.961 339 382.95C339 382.939 339 382.927 339 382.916C339 382.905 339 382.893 339 382.882C339 382.871 339 382.859 339 382.848C339 382.836 339 382.825 339 382.813C339 382.802 339 382.79 339 382.779C339 382.767 339 382.756 339 382.744C339 382.733 339 382.721 339 382.709C339 382.698 339 382.686 339 382.674C339 382.663 339 382.651 339 382.639C339 382.627 339 382.616 339 382.604C339 382.592 339 382.58 339 382.569C339 382.557 339 382.545 339 382.533C339 382.521 339 382.509 339 382.497C339 382.485 339 382.473 339 382.461C339 382.449 339 382.437 339 382.425C339 382.413 339 382.401 339 382.389C339 382.377 339 382.365 339 382.353C339 382.341 339 382.329 339 382.317C339 382.304 339 382.292 339 382.28C339 382.268 339 382.256 339 382.243C339 382.231 339 382.219 339 382.206C339 382.194 339 382.182 339 382.169C339 382.157 339 382.145 339 382.132C339 382.12 339 382.107 339 382.095C339 382.082 339 382.07 339 382.057C339 382.045 339 382.032 339 382.02C339 382.007 339 381.995 339 381.982C339 381.969 339 381.957 339 381.944C339 381.932 339 381.919 339 381.906C339 381.893 339 381.881 339 381.868C339 381.855 339 381.842 339 381.83C339 381.817 339 381.804 339 381.791C339 381.778 339 381.765 339 381.752C339 381.739 339 381.727 339 381.714C339 381.701 339 381.688 339 381.675C339 381.662 339 381.649 339 381.636C339 381.622 339 381.609 339 381.596C339 381.583 339 381.57 339 381.557C339 381.544 339 381.531 339 381.517C339 381.504 339 381.491 339 381.478C339 381.464 339 381.451 339 381.438C339 381.424 339 381.411 339 381.398C339 381.384 339 381.371 339 381.358C339 381.344 339 381.331 339 381.317C339 381.304 339 381.29 339 381.277C339 381.263 339 381.25 339 381.236C339 381.223 339 381.209 339 381.195C339 381.182 339 381.168 339 381.154C339 381.141 339 381.127 339 381.113C339 381.1 339 381.086 339 381.072C339 381.058 339 381.045 339 381.031C339 381.017 339 381.003 339 380.989C339 380.975 339 380.961 339 380.947C339 380.934 339 380.92 339 380.906C339 380.892 339 380.878 339 380.864C339 380.85 339 380.836 339 380.821C339 380.807 339 380.793 339 380.779C339 380.765 339 380.751 339 380.737C339 380.722 339 380.708 339 380.694C339 380.68 339 380.666 339 380.651C339 380.637 339 380.623 339 380.608C339 380.594 339 380.58 339 380.565C339 380.551 339 380.536 339 380.522C339 380.507 339 380.493 339 380.479C339 380.464 339 380.449 339 380.435C339 380.42 339 380.406 339 380.391C339 380.377 339 380.362 339 380.347C339 380.333 339 380.318 339 380.303C339 380.289 339 380.274 339 380.259C339 380.244 339 380.23 339 380.215C339 380.2 339 380.185 339 380.17C339 380.155 339 380.141 339 380.126C339 380.111 339 380.096 339 380.081C339 380.066 339 380.051 339 380.036C339 380.021 339 380.006 339 379.991C339 379.976 339 379.96 339 379.945C339 379.93 339 379.915 339 379.9C339 379.885 339 379.869 339 379.854C339 379.839 339 379.824 339 379.808C339 379.793 339 379.778 339 379.763C339 379.747 339 379.732 339 379.716C339 379.701 339 379.686 339 379.67C339 379.655 339 379.639 339 379.624C339 379.608 339 379.593 339 379.577C339 379.562 339 379.546 339 379.53C339 379.515 339 379.499 339 379.484C339 379.468 339 379.452 339 379.436C339 379.421 339 379.405 339 379.389C339 379.373 339 379.358 339 379.342C339 379.326 339 379.31 339 379.294C339 379.278 339 379.263 339 379.247C339 379.231 339 379.215 339 379.199C339 379.183 339 379.167 339 379.151C339 379.135 339 379.119 339 379.102C339 379.086 339 379.07 339 379.054C339 379.038 339 379.022 339 379.006C339 378.989 339 378.973 339 378.957C339 378.941 339 378.924 339 378.908C339 378.892 339 378.875 339 378.859C339 378.843 339 378.826 339 378.81C339 378.793 339 378.777 339 378.761C339 378.744 339 378.728 339 378.711C339 378.695 339 378.678 339 378.661C339 378.645 339 378.628 339 378.612C339 378.595 339 378.578 339 378.562C339 378.545 339 378.528 339 378.511C339 378.495 339 378.478 339 378.461C339 378.444 339 378.427 339 378.411C339 378.394 339 378.377 339 378.36C339 378.343 339 378.326 339 378.309C339 378.292 339 378.275 339 378.258C339 378.241 339 378.224 339 378.207C339 378.19 339 378.173 339 378.156C339 378.138 339 378.121 339 378.104C339 378.087 339 378.07 339 378.052C339 378.035 339 378.018 339 378.001C339 377.983 339 377.966 339 377.949C339 377.931 339 377.914 339 377.896C339 377.879 339 377.862 339 377.844C339 377.827 339 377.809 339 377.792C339 377.774 339 377.757 339 377.739C339 377.721 339 377.704 339 377.686C339 377.669 339 377.651 339 377.633C339 377.615 339 377.598 339 377.58C339 377.562 339 377.544 339 377.527C339 377.509 339 377.491 339 377.473C339 377.455 339 377.437 339 377.419C339 377.402 339 377.384 339 377.366C339 377.348 339 377.33 339 377.312C339 377.294 339 377.276 339 377.257C339 377.239 339 377.221 339 377.203C339 377.185 339 377.167 339 377.149C339 377.13 339 377.112 339 377.094C339 377.076 339 377.057 339 377.039C339 377.021 339 377.002 339 376.984C339 376.966 339 376.947 339 376.929C339 376.91 339 376.892 339 376.873C339 376.855 339 376.836 339 376.818C339 376.799 339 376.781 339 376.762C339 376.743 339 376.725 339 376.706C339 376.688 339 376.669 339 376.65C339 376.631 339 376.613 339 376.594C339 376.575 339 376.556 339 376.537C339 376.519 339 376.5 339 376.481C339 376.462 339 376.443 339 376.424C339 376.405 339 376.386 339 376.367C339 376.348 339 376.329 339 376.31C339 376.291 339 376.272 339 376.253C339 376.234 339 376.215 339 376.195C339 376.176 339 376.157 339 376.138C339 376.118 339 376.099 339 376.08C339 376.061 339 376.041 339 376.022C339 376.003 339 375.983 339 375.964C339 375.944 339 375.925 339 375.905C339 375.886 339 375.866 339 375.847C339 375.827 339 375.808 339 375.788C339 375.769 339 375.749 339 375.729C339 375.71 339 375.69 339 375.67C339 375.651 339 375.631 339 375.611C339 375.591 339 375.572 339 375.552C339 375.532 339 375.512 339 375.492C339 375.472 339 375.452 339 375.433C339 375.413 339 375.393 339 375.373C339 375.353 339 375.333 339 375.313C339 375.292 339 375.272 339 375.252C339 375.232 339 375.212 339 375.192C339 375.172 339 375.151 339 375.131C339 375.111 339 375.091 339 375.07C339 375.05 339 375.03 339 375.009C339 374.989 339 374.969 339 374.948C339 374.928 339 374.907 339 374.887C339 374.866 339 374.846 339 374.825C339 374.805 339 374.784 339 374.764C339 374.743 339 374.723 339 374.702C339 374.681 339 374.661 339 374.64C339 374.619 339 374.598 339 374.578C339 374.557 339 374.536 339 374.515C339 374.494 339 374.474 339 374.453C339 374.432 339 374.411 339 374.39C339 374.369 339 374.348 339 374.327C339 374.306 339 374.285 339 374.264C339 374.243 339 374.222 339 374.2C339 374.179 339 374.158 339 374.137C339 374.116 339 374.095 339 374.073C339 374.052 339 374.031 339 374.009C339 373.988 339 373.967 339 373.945C339 373.924 339 373.903 339 373.881C339 373.86 339 373.838 339 373.817C339 373.795 339 373.774 339 373.752C339 373.731 339 373.709 339 373.687C339 373.666 339 373.644 339 373.623C339 373.601 339 373.579 339 373.557C339 373.536 339 373.514 339 373.492C339 373.47 339 373.448 339 373.427C339 373.405 339 373.383 339 373.361C339 373.339 339 373.317 339 373.295C339 373.273 339 373.251 339 373.229C339 373.207 339 373.185 339 373.163C339 373.141 339 373.119 339 373.096C339 373.074 339 373.052 339 373.03C339 373.008 339 372.985 339 372.963C339 372.941 339 372.918 339 372.896C339 372.874 339 372.851 339 372.829C339 372.807 339 372.784 339 372.762C339 372.739 339 372.717 339 372.694C339 372.672 339 372.649 339 372.626C339 372.604 339 372.581 339 372.558C339 372.536 339 372.513 339 372.49C339 372.468 339 372.445 339 372.422C339 372.399 339 372.377 339 372.354C339 372.331 339 372.308 339 372.285C339 372.262 339 372.239 339 372.216C339 372.193 339 372.17 339 372.147C339 372.124 339 372.101 339 372.078C339 372.055 339 372.032 339 372.009C339 371.985 339 371.962 339 371.939C339 371.916 339 371.893 339 371.869C339 371.846 339 371.823 339 371.799C339 371.776 339 371.753 339 371.729C339 371.706 339 371.682 339 371.659C339 371.635 339 371.612 339 371.588C339 371.565 339 371.541 339 371.518C339 371.494 339 371.47 339 371.447C339 371.423 339 371.399 339 371.376C339 371.352 339 371.328 339 371.304C339 371.281 339 371.257 339 371.233C339 371.209 339 371.185 339 371.161C339 371.137 339 371.113 339 371.09C339 371.066 339 371.042 339 371.017C339 370.993 339 370.969 339 370.945C339 370.921 339 370.897 339 370.873C339 370.849 339 370.824 339 370.8C339 370.776 339 370.752 339 370.727C339 370.703 339 370.679 339 370.654C339 370.63 339 370.606 339 370.581C339 370.557 339 370.532 339 370.508C339 370.483 339 370.459 339 370.434C339 370.41 339 370.385 339 370.361C339 370.336 339 370.311 339 370.287C339 370.262 339 370.237 339 370.213C339 370.188 339 370.163 339 370.138C339 370.113 339 370.089 339 370.064C339 370.039 339 370.014 339 369.989C339 369.964 339 369.939 339 369.914C339 369.889 339 369.864 339 369.839C339 369.814 339 369.789 339 369.764C339 369.739 339 369.713 339 369.688C339 369.663 339 369.638 339 369.612C339 369.587 339 369.562 339 369.537C339 369.511 339 369.486 339 369.461C339 369.435 339 369.41 339 369.384C339 369.359 339 369.333 339 369.308C339 369.282 339 369.257 339 369.231C339 369.206 339 369.18 339 369.154C339 369.129 339 369.103 339 369.077C339 369.052 339 369.026 339 369H336Z" fill="url(#paint1_linear_0_3595)"/>
</g>
<g filter="url(#filter3_f_0_3595)">
<path d="M328 406C332.922 407.429 334.891 408 338.828 408C341.978 408 346.922 406.667 349 406" stroke="url(#paint2_linear_0_3595)" stroke-width="5" stroke-linecap="round"/>
</g>
<path d="M305 345H335H362" stroke="white" stroke-width="12" stroke-linecap="round"/>
</g>
<path d="M45.2404 480.982L40.9954 470.834C31.6175 448.416 42.1887 422.64 64.6068 413.262L108.523 394.891C139.809 381.804 173.515 407.537 169.135 441.165L167.493 453.776C165.467 469.331 155.313 482.631 140.841 488.685L102.812 504.593C80.394 513.971 54.6183 503.4 45.2404 480.982Z" fill="#9EB0C6"/>
<path d="M12.3646 388.394C8.83147 378.421 14.0517 367.473 24.0243 363.94C36.9517 359.36 51.1443 366.126 55.7243 379.054L80.229 448.22L38.7648 462.91L12.3646 388.394Z" fill="#9EB0C6"/>
<path d="M158.5 409.5C158 411 154.5 424 104.994 442.436" stroke="#5672B5" stroke-width="3" stroke-linecap="square"/>
<path d="M168 431.5C168.814 436.037 160.004 449.559 115.414 467.345" stroke="#5672B5" stroke-width="3" stroke-linecap="round"/>
<defs>
<filter id="filter0_i_0_3595" x="354.265" y="167.692" width="107.207" height="113.885" filterUnits="userSpaceOnUse" color-interpolation-filters="sRGB">
<feFlood flood-opacity="0" result="BackgroundImageFix"/>
<feBlend mode="normal" in="SourceGraphic" in2="BackgroundImageFix" result="shape"/>
<feColorMatrix in="SourceAlpha" type="matrix" values="0 0 0 0 0 0 0 0 0 0 0 0 0 0 0 0 0 0 127 0" result="hardAlpha"/>
<feOffset dy="6.67793"/>
<feGaussianBlur stdDeviation="3.33896"/>
<feComposite in2="hardAlpha" operator="arithmetic" k2="-1" k3="1"/>
<feColorMatrix type="matrix" values="0 0 0 0 1 0 0 0 0 1 0 0 0 0 1 0 0 0 1 0"/>
<feBlend mode="normal" in2="shape" result="effect1_innerShadow_0_3595"/>
</filter>
<filter id="filter1_f_0_3595" x="201.694" y="253.701" width="37.8713" height="18.2754" filterUnits="userSpaceOnUse" color-interpolation-filters="sRGB">
<feFlood flood-opacity="0" result="BackgroundImageFix"/>
<feBlend mode="normal" in="SourceGraphic" in2="BackgroundImageFix" result="shape"/>
<feGaussianBlur stdDeviation="2" result="effect1_foregroundBlur_0_3595"/>
</filter>
<filter id="filter2_f_0_3595" x="333.8" y="366.8" width="7.4" height="24.4" filterUnits="userSpaceOnUse" color-interpolation-filters="sRGB">
<feFlood flood-opacity="0" result="BackgroundImageFix"/>
<feBlend mode="normal" in="SourceGraphic" in2="BackgroundImageFix" result="shape"/>
<feGaussianBlur stdDeviation="1.1" result="effect1_foregroundBlur_0_3595"/>
</filter>
<filter id="filter3_f_0_3595" x="321.499" y="399.5" width="34.0015" height="15.0005" filterUnits="userSpaceOnUse" color-interpolation-filters="sRGB">
<feFlood flood-opacity="0" result="BackgroundImageFix"/>
<feBlend mode="normal" in="SourceGraphic" in2="BackgroundImageFix" result="shape"/>
<feGaussianBlur stdDeviation="2" result="effect1_foregroundBlur_0_3595"/>
</filter>
<linearGradient id="paint0_linear_0_3595" x1="339.5" y1="409.5" x2="330" y2="370.5" gradientUnits="userSpaceOnUse">
<stop stop-color="#D0696F"/>
<stop offset="0.68" stop-color="#D06989" stop-opacity="0.55"/>
<stop offset="1" stop-color="#D069A9" stop-opacity="0"/>
</linearGradient>
<linearGradient id="paint1_linear_0_3595" x1="338" y1="369" x2="338" y2="384" gradientUnits="userSpaceOnUse">
<stop offset="0.168439" stop-color="#2F0E0E" stop-opacity="0"/>
<stop offset="1" stop-color="#2F0E0E"/>
</linearGradient>
<linearGradient id="paint2_linear_0_3595" x1="338.828" y1="405.667" x2="338.828" y2="410" gradientUnits="userSpaceOnUse">
<stop stop-color="#DAAAAA"/>
<stop offset="1" stop-color="#DAAAAA" stop-opacity="0"/>
</linearGradient>
</defs>
</svg>
