<svg width="199" height="63" viewBox="0 0 199 63" fill="none" xmlns="http://www.w3.org/2000/svg">
<path d="M-0.000100851 4.44755L12.0267 16.9118L16.8076 0.264149L-0.000100851 4.44755ZM198.077 59.7715L195.17 58.9367L194.342 61.8201L197.249 62.6549L198.077 59.7715ZM189.357 57.2671L183.543 55.5975L182.715 58.481L188.528 60.1506L189.357 57.2671ZM177.729 53.928L171.916 52.2584L171.088 55.1418L176.901 56.8114L177.729 53.928ZM166.102 50.5888L160.288 48.9192L159.46 51.8027L165.274 53.4723L166.102 50.5888ZM154.475 47.2496L148.661 45.5801L147.833 48.4635L153.647 50.1331L154.475 47.2496ZM142.848 43.9105L137.034 42.2409L136.206 45.1244L142.019 46.7939L142.848 43.9105ZM131.22 40.5713L125.407 38.9018L124.579 41.7852L130.392 43.4548L131.22 40.5713ZM119.593 37.2322L113.779 35.5626L112.951 38.446L118.765 40.1156L119.593 37.2322ZM107.966 33.893L102.152 32.2234L101.324 35.1069L107.138 36.7765L107.966 33.893ZM96.3386 30.5539L90.525 28.8843L89.6969 31.7677L95.5105 33.4373L96.3386 30.5539ZM84.7114 27.2147L78.8978 25.5451L78.0697 28.4286L83.8833 30.0982L84.7114 27.2147ZM73.0842 23.8756L67.2705 22.206L66.4425 25.0894L72.2561 26.759L73.0842 23.8756ZM61.4569 20.5364L55.6433 18.8668L54.8152 21.7503L60.6289 23.4198L61.4569 20.5364ZM49.8297 17.1972L44.0161 15.5277L43.188 18.4111L49.0016 20.0807L49.8297 17.1972ZM38.2025 13.8581L32.3889 12.1885L31.5608 15.072L37.3744 16.7415L38.2025 13.8581ZM26.5753 10.5189L20.7617 8.84936L19.9336 11.7328L25.7472 13.4024L26.5753 10.5189ZM14.948 7.17979L9.13443 5.51021L8.30635 8.39366L14.12 10.0632L14.948 7.17979Z" fill="white"/>
</svg>
